<?xml version="1.0" standalone="no"?>
<!DOCTYPE svg PUBLIC "-//W3C//DTD SVG 1.1//EN" "http://www.w3.org/Graphics/SVG/1.1/DTD/svg11.dtd" >
<svg xmlns="http://www.w3.org/2000/svg" xmlns:xlink="http://www.w3.org/1999/xlink" version="1.1">
<metadata>
Created by FontForge 20150715 at Thu Feb 11 05:50:22 2016
 By Jimmy Wärting
Version 1.1.  Copyright 1993, StarFont, Anthony I.P. Owen, Studiestraede 13b, 1455 Kbh, Denmark. (+45) 33-153989
</metadata>
<defs>
<font id="StarFontSans" horiz-adv-x="2015" >
  <font-face 
    font-family="StarFont Sans"
    font-weight="500"
    font-stretch="normal"
    units-per-em="2048"
    panose-1="4 11 6 0 0 0 0 0 0 0"
    ascent="1638"
    descent="-410"
    x-height="1401"
    cap-height="1401"
    bbox="-291 -518 3170 1917"
    underline-thickness="50"
    underline-position="-125"
    unicode-range="U+000D-2122"
  />
<missing-glyph horiz-adv-x="1536" 
d="M256 0v1280h1024v-1280h-1024zM1247 33v1214h-958v-1214h958z" />
    <glyph glyph-name=".notdef" unicode="&#x2c7;" horiz-adv-x="1536" 
d="M256 0v1280h1024v-1280h-1024zM1247 33v1214h-958v-1214h958z" />
    <glyph glyph-name=".notdef" unicode="&#x2db;" horiz-adv-x="1536" 
d="M256 0v1280h1024v-1280h-1024zM1247 33v1214h-958v-1214h958z" />
    <glyph glyph-name=".notdef" unicode="&#x2dd;" horiz-adv-x="1536" 
d="M256 0v1280h1024v-1280h-1024zM1247 33v1214h-958v-1214h958z" />
    <glyph glyph-name=".notdef" unicode="&#x2da;" horiz-adv-x="1536" 
d="M256 0v1280h1024v-1280h-1024zM1247 33v1214h-958v-1214h958z" />
    <glyph glyph-name=".notdef" unicode="&#x2d9;" horiz-adv-x="1536" 
d="M256 0v1280h1024v-1280h-1024zM1247 33v1214h-958v-1214h958z" />
    <glyph glyph-name=".notdef" unicode="&#x2d8;" horiz-adv-x="1536" 
d="M256 0v1280h1024v-1280h-1024zM1247 33v1214h-958v-1214h958z" />
    <glyph glyph-name=".notdef" unicode="&#x131;" horiz-adv-x="1536" 
d="M256 0v1280h1024v-1280h-1024zM1247 33v1214h-958v-1214h958z" />
    <glyph glyph-name=".notdef" unicode="&#xf8ff;" horiz-adv-x="1536" 
d="M256 0v1280h1024v-1280h-1024zM1247 33v1214h-958v-1214h958z" />
    <glyph glyph-name=".notdef" unicode="&#xfb02;" horiz-adv-x="1536" 
d="M256 0v1280h1024v-1280h-1024zM1247 33v1214h-958v-1214h958z" />
    <glyph glyph-name=".notdef" unicode="&#xfb01;" horiz-adv-x="1536" 
d="M256 0v1280h1024v-1280h-1024zM1247 33v1214h-958v-1214h958z" />
    <glyph glyph-name=".notdef" unicode="&#x2044;" horiz-adv-x="1536" 
d="M256 0v1280h1024v-1280h-1024zM1247 33v1214h-958v-1214h958z" />
    <glyph glyph-name=".notdef" unicode="&#x25ca;" horiz-adv-x="1536" 
d="M256 0v1280h1024v-1280h-1024zM1247 33v1214h-958v-1214h958z" />
    <glyph glyph-name=".notdef" unicode="&#x2206;" horiz-adv-x="1536" 
d="M256 0v1280h1024v-1280h-1024zM1247 33v1214h-958v-1214h958z" />
    <glyph glyph-name=".notdef" unicode="&#x2248;" horiz-adv-x="1536" 
d="M256 0v1280h1024v-1280h-1024zM1247 33v1214h-958v-1214h958z" />
    <glyph glyph-name=".notdef" unicode="&#x221a;" horiz-adv-x="1536" 
d="M256 0v1280h1024v-1280h-1024zM1247 33v1214h-958v-1214h958z" />
    <glyph glyph-name=".notdef" unicode="&#x3a9;" horiz-adv-x="1536" 
d="M256 0v1280h1024v-1280h-1024zM1247 33v1214h-958v-1214h958z" />
    <glyph glyph-name=".notdef" unicode="&#x222b;" horiz-adv-x="1536" 
d="M256 0v1280h1024v-1280h-1024zM1247 33v1214h-958v-1214h958z" />
    <glyph glyph-name=".notdef" unicode="&#x3c0;" horiz-adv-x="1536" 
d="M256 0v1280h1024v-1280h-1024zM1247 33v1214h-958v-1214h958z" />
    <glyph glyph-name=".notdef" unicode="&#x220f;" horiz-adv-x="1536" 
d="M256 0v1280h1024v-1280h-1024zM1247 33v1214h-958v-1214h958z" />
    <glyph glyph-name=".notdef" unicode="&#x2211;" horiz-adv-x="1536" 
d="M256 0v1280h1024v-1280h-1024zM1247 33v1214h-958v-1214h958z" />
    <glyph glyph-name=".notdef" unicode="&#x2202;" horiz-adv-x="1536" 
d="M256 0v1280h1024v-1280h-1024zM1247 33v1214h-958v-1214h958z" />
    <glyph glyph-name=".notdef" unicode="&#x2265;" horiz-adv-x="1536" 
d="M256 0v1280h1024v-1280h-1024zM1247 33v1214h-958v-1214h958z" />
    <glyph glyph-name=".notdef" unicode="&#x2264;" horiz-adv-x="1536" 
d="M256 0v1280h1024v-1280h-1024zM1247 33v1214h-958v-1214h958z" />
    <glyph glyph-name=".notdef" unicode="&#x221e;" horiz-adv-x="1536" 
d="M256 0v1280h1024v-1280h-1024zM1247 33v1214h-958v-1214h958z" />
    <glyph glyph-name=".notdef" unicode="&#x2260;" horiz-adv-x="1536" 
d="M256 0v1280h1024v-1280h-1024zM1247 33v1214h-958v-1214h958z" />
    <glyph glyph-name=".notdef" horiz-adv-x="1536" 
d="M256 0v1280h1024v-1280h-1024zM1247 33v1214h-958v-1214h958z" />
    <glyph glyph-name=".notdef" horiz-adv-x="1536" 
d="M256 0v1280h1024v-1280h-1024zM1247 33v1214h-958v-1214h958z" />
    <glyph glyph-name=".notdef" horiz-adv-x="1536" 
d="M256 0v1280h1024v-1280h-1024zM1247 33v1214h-958v-1214h958z" />
    <glyph glyph-name=".notdef" horiz-adv-x="1536" 
d="M256 0v1280h1024v-1280h-1024zM1247 33v1214h-958v-1214h958z" />
    <glyph glyph-name=".notdef" horiz-adv-x="1536" 
d="M256 0v1280h1024v-1280h-1024zM1247 33v1214h-958v-1214h958z" />
    <glyph glyph-name=".notdef" horiz-adv-x="1536" 
d="M256 0v1280h1024v-1280h-1024zM1247 33v1214h-958v-1214h958z" />
    <glyph glyph-name=".notdef" horiz-adv-x="1536" 
d="M256 0v1280h1024v-1280h-1024zM1247 33v1214h-958v-1214h958z" />
    <glyph glyph-name=".notdef" horiz-adv-x="1536" 
d="M256 0v1280h1024v-1280h-1024zM1247 33v1214h-958v-1214h958z" />
    <glyph glyph-name=".notdef" horiz-adv-x="1536" 
d="M256 0v1280h1024v-1280h-1024zM1247 33v1214h-958v-1214h958z" />
    <glyph glyph-name=".notdef" horiz-adv-x="1536" 
d="M256 0v1280h1024v-1280h-1024zM1247 33v1214h-958v-1214h958z" />
    <glyph glyph-name=".notdef" horiz-adv-x="1536" 
d="M256 0v1280h1024v-1280h-1024zM1247 33v1214h-958v-1214h958z" />
    <glyph glyph-name=".notdef" horiz-adv-x="1536" 
d="M256 0v1280h1024v-1280h-1024zM1247 33v1214h-958v-1214h958z" />
    <glyph glyph-name=".notdef" horiz-adv-x="1536" 
d="M256 0v1280h1024v-1280h-1024zM1247 33v1214h-958v-1214h958z" />
    <glyph glyph-name=".notdef" horiz-adv-x="1536" 
d="M256 0v1280h1024v-1280h-1024zM1247 33v1214h-958v-1214h958z" />
    <glyph glyph-name=".notdef" horiz-adv-x="1536" 
d="M256 0v1280h1024v-1280h-1024zM1247 33v1214h-958v-1214h958z" />
    <glyph glyph-name=".notdef" horiz-adv-x="1536" 
d="M256 0v1280h1024v-1280h-1024zM1247 33v1214h-958v-1214h958z" />
    <glyph glyph-name=".notdef" horiz-adv-x="1536" 
d="M256 0v1280h1024v-1280h-1024zM1247 33v1214h-958v-1214h958z" />
    <glyph glyph-name=".notdef" horiz-adv-x="1536" 
d="M256 0v1280h1024v-1280h-1024zM1247 33v1214h-958v-1214h958z" />
    <glyph glyph-name=".notdef" horiz-adv-x="1536" 
d="M256 0v1280h1024v-1280h-1024zM1247 33v1214h-958v-1214h958z" />
    <glyph glyph-name=".notdef" horiz-adv-x="1536" 
d="M256 0v1280h1024v-1280h-1024zM1247 33v1214h-958v-1214h958z" />
    <glyph glyph-name=".notdef" unicode="&#xa;" horiz-adv-x="1536" 
d="M256 0v1280h1024v-1280h-1024zM1247 33v1214h-958v-1214h958z" />
    <glyph glyph-name=".notdef" horiz-adv-x="1536" 
d="M256 0v1280h1024v-1280h-1024zM1247 33v1214h-958v-1214h958z" />
    <glyph glyph-name=".notdef" horiz-adv-x="1536" 
d="M256 0v1280h1024v-1280h-1024zM1247 33v1214h-958v-1214h958z" />
    <glyph glyph-name=".notdef" horiz-adv-x="1536" 
d="M256 0v1280h1024v-1280h-1024zM1247 33v1214h-958v-1214h958z" />
    <glyph glyph-name=".notdef" horiz-adv-x="1536" 
d="M256 0v1280h1024v-1280h-1024zM1247 33v1214h-958v-1214h958z" />
    <glyph glyph-name=".notdef" horiz-adv-x="1536" 
d="M256 0v1280h1024v-1280h-1024zM1247 33v1214h-958v-1214h958z" />
    <glyph glyph-name=".notdef" horiz-adv-x="1536" 
d="M256 0v1280h1024v-1280h-1024zM1247 33v1214h-958v-1214h958z" />
    <glyph glyph-name=".notdef" horiz-adv-x="1536" 
d="M256 0v1280h1024v-1280h-1024zM1247 33v1214h-958v-1214h958z" />
    <glyph glyph-name=".null" horiz-adv-x="0" 
 />
    <glyph glyph-name=".null" horiz-adv-x="0" 
 />
    <glyph glyph-name=".null" horiz-adv-x="0" 
 />
    <glyph glyph-name="nonmarkingreturn" unicode="&#xd;" horiz-adv-x="0" 
 />
    <glyph glyph-name="nonmarkingreturn" unicode="&#x9;" horiz-adv-x="0" 
 />
    <glyph glyph-name="a" unicode="a" horiz-adv-x="1315" 
d="M754 137q-52 67 -83 135t-50 145t-27 145t-16 175q-5 42 -5 82q0 84 15.5 173.5t56 182.5t109.5 175q-86 -37 -161 -100.5t-132 -148t-87 -178.5t-30 -186q0 -115 54.5 -233t148 -214t207.5 -153zM1008 -147q-160 0 -320.5 74.5t-287.5 202t-202 287.5t-75 320
q0 162 74.5 321.5t202 287.5t286 202t322.5 74h184v-221q-137 -17 -225.5 -122.5t-128 -252t-39.5 -289.5q0 -136 49 -281.5t139 -252.5t205 -129v-221h-184z" />
    <glyph glyph-name="d" unicode="d" horiz-adv-x="1315" 
d="M561 137q117 59 209.5 155t146.5 213t54 232q0 96 -30.5 190t-85.5 175t-129.5 145t-164.5 103q51 -59 87.5 -128.5t55.5 -135t28 -135.5t9 -132q0 -32 -4 -82q-10 -140 -23.5 -231.5t-51 -190t-101.5 -178.5zM307 -147h-184v221q115 22 205 129t139 252.5t49 281.5
q0 105 -20.5 213.5t-66.5 206t-123 164.5t-183 80v221h184q165 0 323 -74t286 -202t202 -286t74 -323q0 -164 -74 -322t-202 -285.5t-287.5 -202t-321.5 -74.5z" />
    <glyph glyph-name="s" unicode="s" 
d="M1892 737q0 -164 -74 -322t-202 -285t-288 -202t-320 -75t-320.5 74.5t-287.5 202t-202 287.5t-75 320q0 162 74.5 321.5t202 287.5t286 202t322.5 74t322 -74t286 -202t202 -286t74 -323zM350 737q0 -118 54.5 -236t151.5 -215t215 -151.5t237 -54.5t238 55t214 150
t150 213t55 239q0 122 -55 241t-149 212.5t-212.5 149t-240.5 55.5t-240 -55t-213.5 -150.5t-150 -214.5t-54.5 -238zM885 737q0 47 38 85t85 38q22 0 46 -11t39 -26t26 -40t11 -46q0 -46 -38.5 -84.5t-83.5 -38.5q-46 0 -84.5 38.5t-38.5 84.5z" />
    <glyph glyph-name="f" unicode="f" horiz-adv-x="1130" 
d="M344 848q0 -56 32.5 -106.5t84 -82.5t104.5 -32q55 0 106 32t83 83t32 106q0 53 -32 104.5t-82.5 84t-106.5 32.5q-54 0 -105 -32.5t-83.5 -83.5t-32.5 -105zM455 61h-332v222h332v137q-68 21 -128 63.5t-106.5 102t-72 126t-25.5 136.5q0 111 69.5 217.5t176.5 167.5
q-69 41 -125.5 102.5t-88.5 136.5t-32 150h221q0 -56 32.5 -106.5t84 -82.5t104.5 -32q55 0 106 32t83 83t32 106h222q0 -110 -69.5 -217t-176.5 -168q72 -43 127.5 -104.5t87 -135.5t31.5 -149q0 -89 -45 -177t-122 -154.5t-165 -94.5v-139h332v-222h-332v-208h-221v208z
" />
    <glyph glyph-name="five" unicode="5" horiz-adv-x="1692" 
d="M295 1030v-450h323q121 0 195 44.5t74 176.5q0 229 -238 229h-354zM1102 -260q-50 44 -90 113q-22 20 -88 305q-25 107 -43.5 156t-45 71t-67 28.5t-131.5 6.5h-342v-567h-172v1325h514q189 0 311.5 -81.5t122.5 -275.5q0 -71 -14.5 -122t-37.5 -83.5t-53.5 -55.5
t-68.5 -46q58 -20 85 -47.5t37.5 -62t41.5 -158.5q7 -27 21 -82.5t29 -110.5t34 -106q4 -14 13.5 -27.5t20.5 -26.5t17 -20l166 229h207l-250 -348l250 -270h-207l-135 139l-101 -139h-206z" />
    <glyph glyph-name="two" unicode="2" horiz-adv-x="3256" 
d="M125 -147v1765h715q169 0 308 -61.5t236 -176t148 -273.5t51 -347q0 -158 -38.5 -317.5t-126 -293.5t-233.5 -215t-354 -81h-706zM365 1413v-1356h460q155 0 271 79.5t178.5 234t62.5 374.5q0 163 -36.5 291t-104.5 210t-166 124.5t-221 42.5h-444zM2349 1356h-137
q-2 59 -41.5 101t-159.5 42q-57 0 -112.5 -26t-55.5 -95q0 -32 14.5 -52t43 -32t94.5 -28l143 -35q130 -31 184 -83.5t54 -139.5q0 -130 -93.5 -206.5t-240.5 -76.5q-152 0 -233 48.5t-105.5 112t-28.5 136.5h140q4 -72 48.5 -122t176.5 -50q83 0 138.5 33.5t55.5 99.5
q0 50 -36 74t-132 49l-165 39q-195 51 -195 207q0 88 43.5 149.5t116 91t159.5 29.5q195 0 259.5 -92t64.5 -174zM3170 1313h-137q-32 182 -203 182q-121 0 -177 -94.5t-56 -224.5q0 -138 49.5 -233t181.5 -95q75 0 131 53t74 148h137q-13 -128 -96 -226t-250 -98
q-116 0 -202 54.5t-131.5 150.5t-45.5 221q0 133 43.5 240t135.5 169t227 62q104 0 174 -44.5t104.5 -115t40.5 -149.5zM1675 578h1458v-211h-1458v211z" />
    <glyph glyph-name="zero" unicode="0" horiz-adv-x="1970" 
d="M999 109v1071h177v-1327h-203l-674 1069h-2v-1069h-174v1327h211l663 -1071h2zM1589 913h-98v-399q0 -49 65 -49h33v-88h-76q-72 0 -98 33t-26 98v405h-86v86h86v181h102v-181h98v-86zM1303 221h544v-102h-544v102zM1745 1180h102v-803h-102v803z" />
    <glyph glyph-name="four" unicode="4" horiz-adv-x="1376" 
d="M1253 1313h-137q-32 182 -203 182q-121 0 -177 -94.5t-56 -224.5q0 -138 49.5 -233t181.5 -95q75 0 131 53t74 148h137q-13 -128 -96 -226t-250 -98q-116 0 -202 54.5t-131.5 150.5t-45.5 221q0 133 43.5 240t135.5 169t227 62q104 0 174 -44.5t104.5 -115t40.5 -149.5z
M528 367v211h725v-211h-725zM365 1618v-1765h-240v1765h240z" />
    <glyph glyph-name="g" unicode="g" horiz-adv-x="1319" 
d="M639 1401q-73 0 -141 -43t-111 -111t-43 -141q0 -72 42.5 -140.5t111 -111.5t141.5 -43t141.5 43t111 111.5t42.5 140.5q0 73 -43 141t-111 111t-141 43zM528 160h-270v221h270v223q-79 22 -152.5 71t-131 119t-89.5 151t-32 161q0 126 75 246t195 195t246 75t246 -75
t195 -195t75 -246q0 -80 -32 -161t-89.5 -151t-130 -119t-153.5 -71v-223h270v-221h-270v-307h-222v307z" />
    <glyph glyph-name="h" unicode="h" 
d="M786 958q-118 0 -221 -59t-162 -161t-59 -222t59 -222t162 -161t221 -59q119 0 222 59.5t162 161t59 221.5t-59 221.5t-162 161t-222 59.5zM1182 1067l331 334h-358v221h580h157v-158v-579h-221v358l-340 -336q112 -167 119 -391q0 -128 -47 -248t-133 -210.5
t-209.5 -145.5t-274.5 -59q-152 0 -277.5 61t-210.5 161t-130 216.5t-45 224.5q0 161 74 314.5t224.5 251.5t364.5 98q228 0 396 -113z" />
    <glyph glyph-name="j" unicode="j" horiz-adv-x="1470" 
d="M1008 639v-270l340 2v-221h-340v-297h-217v297h-668v219q68 62 119.5 153.5t81.5 208.5t30 244q0 82 -13 163t-40 161.5t-71.5 163t-106.5 159.5h221q68 -86 117.5 -178t77 -174t41.5 -169.5t14 -170.5q0 -202 -67 -360t-144 -199l408 -2v270h217z" />
    <glyph glyph-name="k" unicode="k" horiz-adv-x="2028" 
d="M1565 324q-50 0 -89.5 -40.5t-39.5 -88.5q0 -51 39.5 -91.5t89.5 -40.5q49 0 90 40t41 92q0 49 -41 89t-90 40zM465 324q-52 0 -91.5 -40.5t-39.5 -88.5q0 -51 39.5 -91.5t91.5 -40.5q31 0 61 19t49 49t19 64q0 31 -19 61t-49 49t-61 19zM1214 197q0 145 16.5 238.5
t45.5 164t90 183.5t84 161q49 101 49 186q0 131 -107.5 209t-306.5 78q-51 0 -77 -2q-27 2 -74 2q-133 0 -227.5 -35t-142.5 -99.5t-48 -149.5q0 -88 49 -189q22 -45 85 -160.5t91 -180.5t45 -156t17 -230q0 -99 -48 -182.5t-126 -132.5t-164 -49q-83 0 -163 49.5
t-129.5 129.5t-49.5 163t49.5 161.5t129 127t163.5 48.5q58 0 133 -30q-26 59 -55.5 106.5t-103 161.5t-99.5 164q-51 96 -51 201q0 102 51.5 191.5t141.5 157.5t204 105t238 37q55 0 84 -4q28 4 84 4q124 0 238 -37t204.5 -104t142.5 -157.5t52 -192.5q0 -99 -54 -201
q-34 -66 -92.5 -157t-102 -161.5t-65.5 -123.5q72 40 150 40q64 0 124.5 -28t110 -77t77.5 -108.5t28 -123.5q0 -83 -49.5 -163t-129 -129.5t-161.5 -49.5q-84 0 -166 50t-133.5 131t-51.5 163z" />
    <glyph glyph-name="l" unicode="l" horiz-adv-x="1278" 
d="M639 74q73 0 141.5 43t111 111.5t42.5 140.5q0 73 -43 141t-111 111t-141 43t-141 -43t-111 -111t-43 -141q0 -72 42.5 -140.5t111 -111.5t141.5 -43zM528 1315v307h222v-307h270v-221h-270v-224q80 -20 154 -70.5t130.5 -119.5t88.5 -149.5t32 -161.5q0 -126 -75 -246
t-195 -195t-246 -75t-246 75t-195 195t-75 246q0 81 32 161.5t88 149.5t131.5 119.5t153.5 70.5v224h-270v221h270z" />
    <glyph glyph-name="A" unicode="A" horiz-adv-x="1425" 
d="M344 430q0 -67 28.5 -132t79.5 -116t116 -79.5t132 -28.5q92 0 181.5 50t144.5 132t55 174q0 91 -55 179.5t-144 145t-182 56.5t-174.5 -56t-131.5 -145.5t-50 -179.5zM700 541q28 0 54 -15.5t41.5 -41.5t15.5 -54q0 -43 -34 -77t-77 -34q-42 0 -76 34t-34 77t33 77
t77 34zM823 1253v-235q127 -32 237 -122.5t176.5 -215.5t66.5 -250q0 -141 -85.5 -276.5t-223 -218t-281.5 -82.5q-106 0 -210 47t-189.5 131t-136 187.5t-54.5 211.5q0 131 66 255t177 213t236 120v235l-123 -123h-258l492 492l491 -492h-258z" />
    <glyph glyph-name="S" unicode="S" horiz-adv-x="1802" 
d="M340 1032l-217 -90v197l217 88v391h221v-303l227 90v-184l-227 -95v-366q54 69 76.5 93t79 45.5t151.5 21.5q114 0 207 -39t153 -138.5t60 -271.5v-534q0 -129 32 -194t87 -65q69 0 162 99l110 -123q-70 -80 -150 -122t-157 -42q-130 0 -215.5 114.5t-85.5 332.5v501
q0 104 -12 162t-58 91.5t-145 33.5q-84 0 -152.5 -60t-105.5 -160.5t-37 -217.5v-434h-221v1179z" />
    <glyph glyph-name="D" unicode="D" horiz-adv-x="1524" 
d="M1180 246q0 42 -25 82t-65 65t-82 25h-492q-42 0 -82 -25t-65 -65t-25 -82q0 -64 54 -118t118 -54h492q42 0 82 25t65 65t25 82zM823 1270l459 348v-318l-250 -184l250 -184v-309l-459 344v-328h185q73 0 142.5 -32.5t127.5 -90.5t90.5 -127.5t32.5 -142.5t-32.5 -142.5
t-90.5 -127.5t-127.5 -90.5t-142.5 -32.5h-492q-73 0 -142.5 32.5t-127.5 90.5t-90.5 127.5t-32.5 142.5t32.5 142.5t90.5 127.5t127.5 90.5t142.5 32.5h86v983h221v-352z" />
    <glyph glyph-name="F" unicode="F" horiz-adv-x="1464" 
d="M440 369q0 -73 42.5 -140.5t110 -110t140.5 -42.5q70 0 139 42t112.5 111t43.5 140q0 70 -44 139.5t-113.5 112.5t-137.5 43q-71 0 -139.5 -43t-111 -111.5t-42.5 -140.5zM1120 1354v268h221v-807h-221v318h-280v-269q81 -21 152.5 -69.5t128.5 -117t89.5 -149.5
t32.5 -161q0 -127 -75 -246t-194.5 -193.5t-244.5 -74.5q-126 0 -245 74t-193 194t-74 246q0 80 32 160.5t89 149.5t128 117.5t152 69.5v269h-274v-318h-221v807h221v-268h776z" />
    <glyph glyph-name="G" unicode="G" horiz-adv-x="1593" 
d="M907 442h416v-221h-416v-368h-221v368h-416v221h416v244q-143 24 -270 109t-210 253.5t-83 426.5v147h221v-147q0 -151 28.5 -252.5t76.5 -163.5t104 -95.5t133 -58.5v459h221v-457q83 20 157.5 69.5t129.5 170.5t55 328v147h221v-147q0 -204 -50 -347.5t-131 -233
t-177 -137t-205 -71.5v-244z" />
    <glyph glyph-name="H" unicode="H" horiz-adv-x="1561" 
d="M360 1413v-612h476q358 0 358 317q0 105 -44.5 172t-122.5 95t-181 28h-486zM1438 -147h-1315v1765h795q122 0 219 -37t163 -103.5t102 -158t36 -199.5q0 -100 -29 -191.5t-91 -166t-161.5 -119.5t-238.5 -45h-558v-512h857v221h221v-454z" />
    <glyph glyph-name="J" unicode="J" horiz-adv-x="1612" 
d="M803 1626q-47 0 -90.5 -26.5t-71 -70t-27.5 -89.5q0 -72 59.5 -130.5t129.5 -58.5q71 0 129.5 57.5t58.5 131.5q0 46 -27 89t-71 70t-90 27zM455 1440q0 94 49.5 174t132 128t176.5 48q95 0 172.5 -47.5t122.5 -127t45 -175.5q0 -93 -47.5 -172.5t-128.5 -126.5t-174 -47
q-69 0 -132 27.5t-112.5 76.5t-76.5 111.5t-27 130.5zM684 725q-163 34 -293.5 122.5t-209.5 250.5t-79 397v127h222v-127q0 -219 80.5 -345.5t189 -173t209.5 -46.5q91 0 198.5 49.5t187 175.5t79.5 340v127h221v-127q0 -209 -61.5 -356.5t-154.5 -232.5t-187 -125
t-181 -56v-283h332v-221h-332v-368h-221v368h-332v221h332v283z" />
    <glyph glyph-name="K" unicode="K" 
d="M1008 1622q162 0 321 -74.5t287.5 -203t202 -285.5t73.5 -322t-73.5 -322t-202 -285.5t-289 -202.5t-321.5 -74q-159 0 -319 74t-287.5 202.5t-202 287t-74.5 320.5t74.5 320.5t202 287t287 203t321.5 74.5zM1006 573l-361 -366q176 -129 363 -129q190 0 358 127z
M846 735l-361 367q-62 -88 -95.5 -179.5t-33.5 -185.5q0 -92 33 -185.5t96 -180.5zM1008 897l362 369q-174 129 -362 129q-93 0 -185 -33.5t-176 -95.5zM1167 735l359 -366q63 82 98 176.5t35 191.5q0 60 -15.5 125.5t-46 127t-71.5 114.5z" />
    <glyph glyph-name="L" unicode="L" 
d="M1892 737q0 -164 -74 -322t-202 -285t-288 -202t-320 -75t-320.5 74.5t-287.5 202t-202 287.5t-75 320q0 162 74.5 321.5t202 287.5t286 202t322.5 74t322 -74t286 -202t202 -286t74 -323zM1122 1382v-520h529q-23 93 -74.5 178.5t-121.5 154.5t-156.5 118.5t-176.5 68.5
zM1122 92q124 26 237.5 107.5t191.5 196.5t102 239h-531v-543zM893 92v543h-531q25 -124 102.5 -239t191 -196.5t237.5 -107.5zM893 1382q-122 -27 -231 -103t-188 -185t-109 -232h528v520z" />
    <glyph glyph-name="q" unicode="q" horiz-adv-x="1573" 
d="M528 676q-75 0 -135.5 -62t-60.5 -135q0 -47 28 -93.5t74.5 -74.5t93.5 -28q46 0 92.5 28t75.5 74t29 94q0 46 -28.5 92t-74.5 75.5t-94 29.5zM872 676q62 -95 62 -197q0 -101 -58.5 -195t-153 -152t-194.5 -58q-99 0 -193.5 58t-153 152t-58.5 195q0 100 58.5 194.5
t153 153t193.5 58.5q100 0 197 -62l578 578l147 -148z" />
    <glyph glyph-name="w" unicode="w" horiz-adv-x="1573" 
d="M772 516l393 885h285l-487 -1120h487v-207h-1327v207h493l-493 1120h285z" />
    <glyph glyph-name="e" unicode="e" horiz-adv-x="1573" 
d="M418 283h1032v-209h-1327v209l938 938l147 -148z" />
    <glyph glyph-name="r" unicode="r" horiz-adv-x="1573" 
d="M563 840l-440 561h285l378 -481l379 481h285l-440 -561h440v-205h-440l440 -561h-285l-379 481l-378 -481h-285l440 561h-440v205h440z" />
    <glyph glyph-name="t" unicode="t" horiz-adv-x="1573" 
d="M1450 1401v-1327h-1327v1327h1327zM330 1192v-911h911v911h-911z" />
    <glyph glyph-name="Q" unicode="Q" horiz-adv-x="1573" 
d="M512 451h-389v204h332l331 332l334 -332h330v-204h-385l-279 276z" />
    <glyph glyph-name="W" unicode="W" horiz-adv-x="1573" 
d="M684 281v1120h205v-1120h561v-207h-1327v207h561z" />
    <glyph glyph-name="E" unicode="E" horiz-adv-x="1573" 
d="M1243 336v1065h207v-1327h-285l-835 1065v-1065h-207v1327h285z" />
    <glyph glyph-name="z" unicode="z" horiz-adv-x="1819" 
d="M1122 516q-6 84 -6 225q3 173 6 217h-426q6 -84 6 -225q-3 -171 -6 -217h426zM1696 -147h-242q-112 95 -183 204t-108 238h-508q-71 -257 -290 -442h-242q174 197 264 428t90 467q0 235 -90 460.5t-264 413.5h242q113 -94 184.5 -206.5t105.5 -235.5h508q36 127 108 238
t183 204h242q-174 -188 -263.5 -412.5t-89.5 -461.5q0 -239 89.5 -468.5t263.5 -426.5z" />
    <glyph glyph-name="x" unicode="x" horiz-adv-x="2032" 
d="M897 1178q-45 20 -111 56.5t-130.5 72.5t-114 60.5t-88.5 33.5q-36 8 -68 8q-78 0 -78 -70q0 -22 5 -46t15 -56.5t17 -56.5q20 -72 40 -109.5t53.5 -61.5t103.5 -51v-221q-39 20 -117.5 54t-130.5 73t-96 114.5t-74 201.5q-23 88 -23 174q0 140 72.5 207t196.5 67
q40 0 84 -6q104 -17 181.5 -45t140 -66t151.5 -102h164q89 64 151 102t140.5 66t181.5 45q42 6 84 6q79 0 140 -28.5t94.5 -89.5t33.5 -156q0 -86 -23 -174q-30 -125 -73.5 -201.5t-95 -115t-130.5 -72.5t-118 -54v221q71 27 104 51.5t52.5 61.5t39.5 109q37 120 37 159
q0 70 -78 70q-32 0 -67 -8q-43 -10 -103.5 -41t-175 -95t-166.5 -87v-1325h-221v1325z" />
    <glyph glyph-name="c" unicode="c" horiz-adv-x="1573" 
d="M1126 1069q71 -47 131.5 -110.5t102.5 -134.5t66 -149t24 -159q0 -120 -55.5 -240t-151.5 -216t-216 -151.5t-241 -55.5q-119 0 -238 55t-216.5 151.5t-153 216t-55.5 240.5q0 105 41 208t115 192.5t167 152.5q-72 50 -129.5 110.5t-101.5 133.5t-68 153.5t-24 155.5h221
q0 -89 55.5 -194t157.5 -176.5t229 -71.5q98 0 180 42t142.5 112.5t90.5 145t30 142.5h221q0 -80 -24 -158t-66 -149t-102 -134t-132 -112zM344 516q0 -80 36.5 -158.5t102.5 -144.5t144.5 -102.5t158.5 -36.5q81 0 161 37t144 101t101 144t37 160q0 67 -30.5 143.5
t-89.5 145.5t-142 111t-181 42q-127 0 -229 -71.5t-157.5 -176.5t-55.5 -194z" />
    <glyph glyph-name="v" unicode="v" horiz-adv-x="1843" 
d="M1208 74v1327h-573v-1327h573zM414 74v1327h-291v221h1597v-221h-290v-1327h290v-221h-1597v221h291z" />
    <glyph glyph-name="b" unicode="b" 
d="M344 1032q0 -54 32.5 -105t83.5 -83.5t105 -32.5q56 0 106.5 32.5t82.5 84t32 104.5q0 55 -32 106t-83 83t-106 32q-53 0 -104.5 -32t-84 -82.5t-32.5 -106.5zM1671 442q0 54 -32 105.5t-82.5 84t-106.5 32.5t-106.5 -32.5t-82.5 -84t-32 -105.5q0 -53 32 -104.5
t82.5 -84t106.5 -32.5t106.5 32.5t82.5 84t32 104.5zM907 1292q101 -119 101 -260q0 -80 -36.5 -159t-101.5 -144t-144.5 -102t-160.5 -37q-115 0 -216.5 63.5t-163.5 166.5t-62 212q0 211 183 348t702 140q215 0 377.5 -34t286.5 -99t220 -158v-221q-73 69 -153.5 121.5
t-178.5 90.5t-219 58t-272 20q-75 0 -162 -6zM1892 442q0 -95 -33.5 -178t-126 -152t-270 -112.5t-454.5 -44.5q-161 0 -296.5 20.5t-239.5 57t-189 89t-160 124.5v221q95 -90 210.5 -154.5t267 -100.5t345.5 -36q76 0 162 6q-46 56 -73 124.5t-27 135.5q0 81 37 161
t101 144t144 101t160 37q85 0 167 -37t143.5 -100t96.5 -143.5t35 -162.5z" />
    <glyph glyph-name="n" unicode="n" horiz-adv-x="2011" 
d="M516 471q-56 0 -108.5 -33t-84.5 -85t-32 -107q0 -56 32 -108t84.5 -85t108.5 -33t108.5 33t84.5 85t32 108q0 55 -32 107t-84.5 85t-108.5 33zM913 246q0 -79 -31 -150t-85.5 -125.5t-127 -86t-153.5 -31.5q-104 0 -195 53.5t-144.5 144.5t-53.5 195q0 80 33 152.5
t90.5 127.5t130 86t153.5 31q52 0 99 -12q-39 81 -61.5 128t-52.5 114t-47 125.5t-17 103.5q0 11 4 41q85 479 553 479q171 0 302.5 -18t238 -74t170 -171t63.5 -302q-4 -178 -52 -310.5t-118 -243t-145.5 -234t-102.5 -236.5q-31 -131 -31 -201q0 -101 64 -127
q50 -20 92 -20q37 0 68.5 14t65.5 42.5t65 61t67 70.5l133 -147q-121 -127 -221.5 -181.5t-193.5 -54.5q-78 0 -158 33q-187 71 -187 319q0 106 39 258q25 96 71 183t142.5 251t142 266t50.5 195q2 21 2 62q0 154 -61.5 229.5t-175.5 99.5t-330 35q-116 0 -188.5 -35
t-108.5 -99t-47 -157q0 -71 29 -150t91 -217.5t96.5 -248t34.5 -211.5q0 -39 -2 -57z" />
    <glyph glyph-name="m" unicode="m" horiz-adv-x="1905" 
d="M1434 -258q-84 -144 -195 -258l-158 158q136 94 238 319q-105 244 -160.5 551.5t-77.5 667.5q0 134 -34.5 177.5t-88.5 43.5q-85 0 -110 -57.5t-25 -163.5v-1327h-221v1327q0 135 -35 178t-88 43q-135 0 -135 -221v-1327h-221v1327q0 112 44 214t125 165t187 63
q146 0 236 -115q100 115 243 115q146 0 236 -115q100 115 244 115q106 0 184.5 -63t119 -165t40.5 -214q-9 -163 -27.5 -326t-46 -314t-69 -296.5t-99.5 -282.5q109 -226 242 -319l-158 -158q-113 116 -190 258zM1430 272q36 134 63 284.5t43.5 306.5t24.5 317
q0 103 -24.5 162t-98.5 59q-85 0 -110 -57.5t-25 -163.5q25 -505 127 -908z" />
    <glyph glyph-name="Z" unicode="Z" horiz-adv-x="1573" 
d="M1108 1401h-985v221h1327v-221l-463 -385q123 -35 229.5 -123t170 -208.5t63.5 -242.5q0 -143 -85.5 -280.5t-222.5 -223t-282 -85.5t-282 85.5t-222.5 223t-85.5 280.5q0 98 40.5 194t111.5 175h-299v221h532zM860 811q-90 0 -175.5 -53t-139 -139t-53.5 -177
q0 -90 53.5 -175.5t139 -139t175.5 -53.5t176 53.5t139.5 139t53.5 175.5q0 70 -31.5 136t-83 117.5t-118.5 83.5t-136 32z" />
    <glyph glyph-name="X" unicode="X" 
d="M123 440h1769v-211h-1769v211zM786 662h-663v223h442q0 81 37 160.5t101 143.5t144 101t161 37t162 -37.5t143 -99.5t99.5 -143t37.5 -162h442v-223h-663v223q0 54 -32.5 105t-83.5 83.5t-105 32.5q-55 0 -106 -32.5t-83.5 -83.5t-32.5 -105v-223z" />
    <glyph glyph-name="C" unicode="C" horiz-adv-x="2052" 
d="M1303 1180v-1254q0 -221 135 -221q74 0 98.5 63.5t24.5 168.5l-148 -89v226l258 157l258 -186v-197l-147 89q0 -112 -41 -217.5t-119 -170.5t-184 -65t-187.5 63t-125.5 165t-44 214v1254q0 134 -34.5 177.5t-88.5 43.5q-83 0 -109 -58t-26 -163v-1327h-221v1327
q0 135 -35 178t-88 43q-135 0 -135 -221v-1327h-221v1327q0 112 44 214t125 165t187 63q146 0 236 -115q100 115 243 115q107 0 184.5 -62.5t119 -165t41.5 -214.5z" />
    <glyph glyph-name="V" unicode="V" horiz-adv-x="2163" 
d="M897 627h-184v209h393l588 589h-244v197h590v-618h-221v241l-410 -409h188v-209h-397l-774 -774h-303z" />
    <glyph glyph-name="hyphen" unicode="-" horiz-adv-x="1241" 
d="M1190 641v-149h-1139v149h1139z" />
    <glyph glyph-name="seven" unicode="7" horiz-adv-x="1673" 
d="M123 -147v1327h539q127 0 230.5 -47.5t176.5 -133t111.5 -204t38.5 -263.5q0 -120 -29 -239t-94 -218.5t-175.5 -160.5t-267.5 -61h-530zM305 1022v-1018h346q177 0 280 135t103 381q0 163 -48 276.5t-137 169.5t-212 56h-332zM1550 913h-98v-399q0 -49 64 -49h34v-88
h-75q-74 0 -99.5 33.5t-25.5 97.5v405h-86v86h86v177h102v-177h98v-86zM1264 221h286v-102h-286v102z" />
    <glyph glyph-name="B" unicode="B" horiz-adv-x="2195" 
d="M1655 1190q39 6 72.5 30.5t54 62.5t20.5 77q0 44 -24.5 83.5t-64 64t-83.5 24.5q-63 0 -117.5 -55.5t-54.5 -120.5q0 -59 44 -108t104 -58h49zM1489 969h-113l-479 -1116h-221l-553 1548h237l426 -1221l426 1010h64q-39 80 -39 166q0 105 56 198t150 148t202 55
q102 0 190.5 -54t140.5 -146t52 -197q0 -83 -33.5 -156.5t-94 -129t-133.5 -81.5q73 -60 121 -127t103 -168q39 -73 60.5 -153.5t21.5 -161.5q0 -156 -82.5 -289t-252.5 -212t-415 -79v211q167 1 282.5 49.5t172.5 132.5t57 191q0 147 -100 311q-51 82 -102 136.5
t-144 134.5z" />
    <glyph glyph-name="N" unicode="N" 
d="M1892 147l-295 295l-294 -295l-295 295l-295 -295l-295 295l-295 -295v246l295 295l295 -295l295 295l295 -295l294 295l295 -295v-246zM1892 727l-295 295l-294 -295l-295 295l-295 -295l-295 295l-295 -295v246l295 295l295 -295l295 295l295 -295l294 295l295 -295
v-246z" />
    <glyph glyph-name="M" unicode="M" horiz-adv-x="1823" 
d="M1110 858q4 134 30 239t74.5 194t120.5 166.5t178 164.5h261q-110 -92 -185 -168t-130 -163.5t-87 -191t-41 -241.5h369v-231h-369q9 -176 62 -308.5t145.5 -239.5t235.5 -226h-261q-139 116 -224.5 223t-130 238.5t-48.5 312.5h-324q-4 -181 -48.5 -312.5t-130 -238.5
t-224.5 -223h-260q148 123 239 228t143.5 236.5t59.5 309.5h-368v231h368q-10 177 -62 305.5t-144 234.5t-236 224h260q106 -87 178.5 -165t120.5 -166t74 -193.5t30 -239.5h324z" />
    <glyph glyph-name="y" unicode="y" horiz-adv-x="1118" 
d="M123 74v1327h209v-1327h-209zM786 74v1327h209v-1327h-209z" />
    <glyph glyph-name="u" unicode="u" horiz-adv-x="1798" 
d="M895 1196l-528 -913h1058zM1012 1401l663 -1118v-209h-1552v209l659 1118h230z" />
    <glyph glyph-name="i" unicode="i" horiz-adv-x="1462" 
d="M455 516h-332v885h885v-885h-344v-233h675v-209h-884v442zM664 725h135v467h-467v-467h123v246h209v-246z" />
    <glyph glyph-name="o" unicode="o" horiz-adv-x="1573" 
d="M772 975l-364 -901h-285l493 1136h-493v207h1327v-207h-487l487 -1136h-285z" />
    <glyph glyph-name="p" unicode="p" horiz-adv-x="1573" 
d="M465 545q-52 0 -91.5 -40.5t-39.5 -88.5q0 -51 40 -91t91 -40q48 0 88.5 39.5t40.5 91.5q0 31 -19 61t-49 49t-61 19zM1110 1192q-50 0 -89.5 -41.5t-39.5 -89.5q0 -31 18.5 -61.5t49 -49t61.5 -18.5q33 0 63.5 18.5t49 49t18.5 61.5q0 49 -40 90t-91 41zM958 762
l-196 -197q41 -74 41 -149q0 -82 -49 -162.5t-128 -130t-161 -49.5q-83 0 -163 49.5t-129.5 129.5t-49.5 163q0 82 49.5 161t130 128t162.5 49q69 0 149 -41l197 196q-41 80 -41 152q0 82 49 161.5t128.5 129t162.5 49.5q64 0 123.5 -27.5t110.5 -78.5t78.5 -110.5
t27.5 -123.5q0 -83 -49.5 -162.5t-129 -128.5t-161.5 -49q-79 0 -152 41z" />
    <glyph glyph-name="R" unicode="R" horiz-adv-x="1573" 
d="M563 840l-440 561h285l276 -352v352h205v-352l276 352h285l-440 -561h440v-205h-440l440 -561h-285l-379 481l-378 -481h-285l440 561h-440v205h440z" />
    <glyph glyph-name="T" unicode="T" horiz-adv-x="1081" 
d="M803 881q0 405 -254 405q-114 0 -172 -58.5t-74 -134.5t-16 -163q0 -165 66.5 -267t191.5 -102q98 0 178 75t80 245zM797 551q-33 -55 -99.5 -92t-156.5 -37q-114 0 -196.5 48t-131 128t-69.5 171.5t-21 184.5q0 206 105 339.5t290 133.5q113 0 179.5 -48.5t109.5 -112.5
v135h151v-1327h-161v477z" />
    <glyph glyph-name="Y" unicode="Y" horiz-adv-x="1536" 
d="M995 967h-454v-455h454v455zM995 303h-454v-229h-209v229h-209v209h209v455h-209v209h209v225h209v-225h454v225h209v-225h209v-209h-209v-455h209v-209h-209v-229h-209v229z" />
    <glyph glyph-name="U" unicode="U" horiz-adv-x="1092" 
d="M274 74h-151v1325h162v-481h2q104 146 278 149q125 0 217 -63t139.5 -172.5t47.5 -245.5q0 -128 -40.5 -252t-136.5 -205.5t-249 -81.5q-179 0 -264 148h-5v-121zM801 557q0 145 -50 254t-214 109q-153 0 -205.5 -121t-52.5 -287q0 -116 41 -190.5t101.5 -105
t119.5 -30.5q127 0 193.5 103t66.5 268z" />
    <glyph glyph-name="one" unicode="1" horiz-adv-x="3011" 
d="M1294 367h-706l-185 -514h-245l663 1765h271l639 -1765h-261zM2103 1356h-137q-2 59 -42 101t-159 42q-57 0 -112.5 -26t-55.5 -95q0 -32 14.5 -52t43 -32t94.5 -28l143 -35q130 -31 184 -83.5t54 -139.5q0 -130 -93.5 -206.5t-240.5 -76.5q-219 0 -289 89t-77 208h139
q4 -72 48.5 -122t176.5 -50q83 0 139 33.5t56 99.5q0 50 -36 74t-132 49l-166 39q-195 51 -195 207q0 88 43.5 149.5t116 91t160.5 29.5q194 0 258.5 -92t64.5 -174zM2925 1313h-138q-16 89 -65 135.5t-137 46.5q-123 0 -178.5 -94t-55.5 -225q0 -138 50.5 -233t181.5 -95
q74 0 130 53t74 148h138q-13 -127 -96.5 -225.5t-250.5 -98.5q-116 0 -202 54.5t-131 150.5t-45 221q0 133 44 240.5t135 169t226 61.5q104 0 174 -44.5t104.5 -114.5t41.5 -150zM1671 578h1217v-211h-1217v211zM948 1354l-286 -776h546z" />
    <glyph glyph-name="three" unicode="3" horiz-adv-x="2781" 
d="M2658 1313h-137q-29 182 -201 182q-123 0 -178 -94.5t-55 -224.5q0 -138 49.5 -233t181.5 -95q73 0 129 53t74 148h137q-13 -128 -96 -226t-250 -98q-115 0 -201.5 54.5t-132 152.5t-45.5 219q0 134 44 240.5t135.5 168.5t226.5 62q106 0 175.5 -44.5t103.5 -115
t40 -149.5zM1933 367v211h725v-211h-725zM1583 1335l-498 -968h-235l-496 964v-1478h-231v1765h342l504 -1040h4l502 1040h340v-1765h-232v1482z" />
    <glyph glyph-name="I" unicode="I" horiz-adv-x="1573" 
d="M684 834v567h205v-567h352v-207h-352v-346h561v-207h-561h-205h-561v207h561v346h-352v207h352z" />
    <glyph glyph-name="O" unicode="O" horiz-adv-x="1573" 
d="M514 862l135 332h-291zM1067 893l137 301h-274zM123 1194v207h1327v-207l-561 -1120h-205zM958 659l-172 336l-161 -370l161 -342z" />
    <glyph glyph-name="P" unicode="P" horiz-adv-x="1798" 
d="M729 1055v86h490v-76l-289 -619h-99l289 609h-391zM897 262l549 944h-1092zM1012 74h-230l-659 1118v209h1552v-209z" />
    <glyph glyph-name="six" unicode="6" horiz-adv-x="1624" 
d="M1110 764h-162q-7 138 -99 199t-220 61q-116 0 -205.5 -48t-89.5 -177q0 -75 41.5 -111t111.5 -51l369 -84q291 -68 291 -344q0 -143 -76 -231t-190 -124t-240 -36q-157 0 -244 35.5t-143 89.5q-76 69 -103.5 147t-27.5 178h162q0 -110 51.5 -177t132 -95.5t172.5 -28.5
q129 0 233.5 48t104.5 169q0 68 -25 108t-81.5 66.5t-170.5 55.5l-262 61q-106 25 -191 90.5t-85 210.5q0 105 48 197t149 147.5t249 55.5q483 0 500 -412zM1501 913h-98v-399q0 -49 63 -49h35v-88h-76q-73 0 -99 33t-26 98v405h-86v86h86v177h103v-177h98v-86zM1214 221
h287v-102h-287v102z" />
    <glyph glyph-name="currency" unicode="&#x20ac;" horiz-adv-x="1241" 
d="M332 352q0 -71 42 -139t109.5 -110t139.5 -42q68 0 135 42t109 109.5t42 139.5q0 70 -42 136.5t-108.5 108.5t-135.5 42q-73 0 -140 -42t-109 -109t-42 -136zM901 745q98 -71 157.5 -176.5t59.5 -216.5q0 -95 -41.5 -183.5t-113.5 -160.5t-161 -113.5t-179 -41.5
q-92 0 -181 41t-162.5 114t-115 162.5t-41.5 181.5q0 111 59 215.5t158 177.5q-100 74 -158.5 179t-58.5 215h209q0 -64 38 -131.5t105.5 -113.5t147.5 -46q90 0 155.5 49t98 118t32.5 124h209q0 -113 -59 -217.5t-158 -176.5zM516 1202h-211l2 203h209v217h209v-219l211 -2
l-2 -199h-209v-209h-209v209z" />
    <glyph glyph-name="eight" unicode="8" horiz-adv-x="1227" 
d="M598 745h-166v-669q0 -51 30.5 -65.5t74.5 -14.5h61v-143h-131q-119 0 -164 54.5t-45 158.5v679h-139v144h139v287h174v-287h166v-144zM594 414h510v-119h-510v119zM881 1065q24 50 72 90.5t116 40.5q11 0 35 -4v-119q-100 0 -158.5 -38t-58.5 -142v-393h-113v680h107
v-115z" />
    <glyph glyph-name="nine" unicode="9" horiz-adv-x="1522" 
d="M1008 414h391v-119h-391v119zM1176 1065q24 50 72 90.5t116 40.5q9 0 35 -4v-119q-100 0 -158.5 -38t-58.5 -142v-393h-113v680h107v-115zM279 653q0 -117 41 -190.5t100 -103t121 -29.5q127 0 193.5 102t66.5 268q0 145 -50 253t-214 108q-107 0 -164.5 -64t-75.5 -154
t-18 -190zM123 -147v1327h151v-136h5q49 69 110.5 116.5t175.5 47.5q125 0 217 -63t139.5 -172.5t47.5 -245.5q0 -129 -40.5 -252.5t-136.5 -205t-249 -81.5q-87 0 -152.5 36t-103.5 93h-2l2 -464h-164z" />
    <glyph glyph-name="plus" unicode="+" horiz-adv-x="1425" 
d="M713 -147q-176 180 -290.5 339t-178 299t-90 269t-31.5 272q0 131 40 238.5t115.5 183t184.5 118t250 50.5q140 -7 250 -50t185 -118.5t115 -181t40 -240.5q-3 -133 -30 -265t-92 -276t-181 -304t-287 -334zM815 1401v-1131q79 111 137 238.5t93 259t51 264.5q4 30 4 45
q0 109 -69 200.5t-216 123.5zM610 1401q-100 -23 -164 -73.5t-92 -116.5t-28 -134q0 -15 4 -45q16 -133 51 -266t92.5 -260t136.5 -236v1131z" />
    <glyph glyph-name="exclam" unicode="!" horiz-adv-x="2773" 
d="M895 113l502 1505h266l-643 -1765h-254l-643 1765h266zM1765 367v211h885v-211h-885zM2310 1155l340 -496h-207l-241 363l-232 -363h-205l338 496l-321 467h209l223 -340l221 340h199z" />
    <glyph glyph-name="numbersign" unicode="#" 
d="M1182 1067l331 334h-358v221h737v-737h-221v356l-340 -334q112 -167 119 -391q0 -128 -47 -248t-133 -210.5t-209.5 -145.5t-274.5 -59q-152 0 -277.5 61t-210.5 161t-130 216.5t-45 224.5q0 161 74 314.5t224.5 251.5t364.5 98q228 0 396 -113zM811 74q39 113 56.5 176
t17.5 112q0 91 -72 181q-88 71 -180 71q-53 0 -114 -17t-175 -56q0 -135 57.5 -241.5t164.5 -166t245 -59.5zM1069 174q75 63 117.5 152t42.5 190q0 120 -59 221.5t-162 161t-222 59.5q-101 0 -190 -41.5t-152 -117.5q117 37 218 37q208 0 317 -127q127 -115 127 -318
q0 -105 -37 -217z" />
    <glyph glyph-name="equal" unicode="=" horiz-adv-x="819" 
d="M102 483v172h615v-172h-615zM102 819v172h615v-172h-615z" />
    <glyph glyph-name="slash" unicode="/" horiz-adv-x="983" 
d="M389 846v825h205v-825h266v-217h-266v-826h-205v826h-266v217h266z" />
    <glyph glyph-name="Oslash" unicode="&#xd8;" 
d="M1522 1085l-863 -862q165 -125 349 -125q156 0 304.5 93t241.5 241.5t93 304.5q0 91 -32.5 180.5t-92.5 167.5zM317 223q-91 115 -142.5 247t-51.5 267q0 162 74.5 321.5t202 287.5t286 202t322.5 74q139 0 272 -50t248 -142l188 192l176 -176l-196 -195
q94 -116 145 -246.5t51 -267.5q0 -164 -74 -322t-202 -285t-288 -202t-320 -75q-136 0 -269.5 51.5t-251.5 146.5l-200 -211l-176 174zM492 389l868 864q-82 59 -173 91t-179 32q-156 0 -305 -92.5t-241.5 -241.5t-92.5 -305q0 -178 123 -348z" />
    <glyph glyph-name="AE" unicode="&#xc6;" 
d="M1892 737q0 -164 -74 -322t-202 -285t-288 -202t-320 -75t-320.5 74.5t-287.5 202t-202 287.5t-75 320q0 162 74.5 321.5t202 287.5t286 202t322.5 74t322 -74t286 -202t202 -286t74 -323zM1239 1323q73 -87 121 -201t69 -218.5t21 -166.5q0 -70 -23 -176t-77.5 -219.5
t-147.5 -206.5q121 48 223.5 143t162 215.5t59.5 243.5q0 91 -31.5 179t-86.5 165t-130.5 140.5t-159.5 101.5zM883 1360q-136 -34 -254 -129t-189 -227t-71 -267q0 -105 44.5 -210t120.5 -191.5t174.5 -146t204.5 -80.5q143 83 213 198.5t86.5 217.5t16.5 212
q0 111 -18.5 212t-95 215.5t-232.5 195.5z" />
    <glyph glyph-name="percent" unicode="%" horiz-adv-x="907" 
d="M784 1622v-819q-22 10 -39 10q-11 0 -21 -0.5t-24 -1.5q-93 0 -174.5 -56t-131.5 -145.5t-50 -179.5t49.5 -170t131 -129t175.5 -57q40 -3 69 -6t54 -5v-210h-110q-106 0 -210 47t-189.5 131t-136 187.5t-54.5 211.5q0 131 66 255t177 213t236 120v215l-123 -103h-258z
" />
    <glyph glyph-name="Aring" unicode="&#xc5;" horiz-adv-x="1583" 
d="M1049 1159q0 56 45 101t102 45q37 0 70.5 -22t54 -56t20.5 -68q0 -56 -44.5 -101.5t-100.5 -45.5q-36 0 -70 21.5t-55.5 55.5t-21.5 70zM217 1159q0 54 46 100t102 46q36 0 69 -21.5t53.5 -56t20.5 -68.5q0 -57 -44 -102t-99 -45q-56 0 -102 46t-46 101zM711 502l-133 92
l-111 -254zM995 588l-121 -84l211 -146zM895 831h-221l-62 -151l183 -123l166 109zM858 920l-72 174l-75 -174h147zM975 920h485l-379 -271l222 -575l-515 368l-518 -368l226 579l-373 267h475l188 481zM1010 831l39 -104l155 104h-194zM565 831h-176l139 -94z" />
    <glyph glyph-name="ampersand" unicode="&#x26;" horiz-adv-x="1536" 
d="M995 631h-454v-557h-209v557h-209v209h209v561h209v-561h454v561h209v-561h209v-209h-209v-557h-209v557z" />
    <glyph glyph-name="ae" unicode="&#xe6;" 
d="M123 737q0 162 74.5 321.5t202 287.5t286 202t322.5 74t322 -74t286 -202t202 -286t74 -323q0 -164 -74 -322t-202 -285t-288 -202t-320 -75t-320.5 74.5t-287.5 202t-202 287.5t-75 320zM1133 1360q-119 -62 -192.5 -146.5t-105.5 -169t-40.5 -156t-8.5 -151.5
q0 -110 16.5 -212t86.5 -217.5t213 -198.5q107 21 205.5 80.5t175 146t120.5 191.5t44 210q0 103 -42 205.5t-114 187.5t-164.5 145t-193.5 85zM776 1323q-84 -39 -158.5 -101.5t-130 -141t-87 -168t-31.5 -175.5q0 -122 59 -244t161 -216t222 -140q-93 93 -147 205.5
t-76.5 215.5t-22.5 179q0 62 21 166.5t69 218.5t121 201z" />
    <glyph glyph-name="semicolon" unicode=";" horiz-adv-x="1241" 
d="M618 1266l287 358h213l-311 -395h311v-205h-309l309 -395h-213l-166 209v-457h271v-221h-271v-307h-221v307h-270v221h270v479l-182 -231h-213l309 395h-309v205h311l-311 395h213z" />
    <glyph glyph-name="colon" unicode=":" horiz-adv-x="1366" 
d="M692 1362l-295 -295l295 -295l295 295zM803 610v-229h270v-221h-270v-307h-221v307h-271v221h271v229l-459 457l569 569l572 -569z" />
    <glyph glyph-name="underscore" unicode="_" horiz-adv-x="1976" 
d="M123 453v221h481l365 -600h80l323 600h481v-221h-383l-344 -600h-237l-383 600h-383zM897 1622h221v-649h-221v649zM1243 1092h227l-344 -600h-237l-383 600h235l228 -379h80z" />
    <glyph glyph-name="space" unicode=" " horiz-adv-x="717" 
 />
    <glyph glyph-name="nonbreakingspace" unicode="&#xa0;" horiz-adv-x="569" 
 />
    <glyph glyph-name="parenleft" unicode="(" 
d="M1892 737q0 -164 -74 -322t-202 -285t-288 -202t-320 -75t-320.5 74.5t-287.5 202t-202 287.5t-75 320q0 162 74.5 321.5t202 287.5t286 202t322.5 74t322 -74t286 -202t202 -286t74 -323zM369 737q0 -156 93 -305t241.5 -241.5t304.5 -92.5t304.5 93t241.5 241.5
t93 304.5q0 117 -54 233t-146 207t-206.5 145t-232.5 54q-156 0 -305 -92.5t-241.5 -241.5t-92.5 -305zM936 1049v151h143v-151l244 131v-148l-244 -131v-430q62 20 113 67t76 105l131 -49q-35 -76 -96 -139t-139 -100.5t-156 -37.5q-119 0 -230 81t-162 196l132 49
q26 -60 77 -106.5t111 -65.5v430l-244 131v148z" />
    <glyph glyph-name="germandbls" unicode="&#xdf;" horiz-adv-x="1587" 
d="M1348 1362v-131h-131v-860h247v-221h-247v-166h131v-131h-725v131h129v166h-629v219q68 62 119.5 153.5t81.5 208.5t30 244q0 82 -13 163t-40 161.5t-71.5 163t-106.5 159.5h221q65 -81 113.5 -170t76.5 -172t42 -168.5t14 -167.5q0 -137 -37 -261.5t-94.5 -206
t-114.5 -105.5l408 -2v862h-129v131h725zM883 1231v-862l202 2v860h-202zM883 -16h202v166h-202v-166z" />
    <glyph glyph-name="Udieresis" unicode="&#xdc;" horiz-adv-x="1290" 
d="M852 893v-246q80 28 152 98l165 -170q-92 -92 -176.5 -132t-140.5 -40v-550h-221v548q-98 0 -219.5 92t-205 232t-83.5 279q0 151 89.5 295t233.5 233.5t295 89.5q56 0 116 -14t114.5 -40t107 -64.5t88.5 -76.5l-163 -163q-53 51 -123.5 82.5t-139.5 31.5
q-91 0 -179 -54.5t-142.5 -141.5t-54.5 -178q0 -112 78 -214.5t188 -142.5v246h-164v221h164v143h221v-143h192v-221h-192z" />
    <glyph glyph-name="udieresis" unicode="&#xfc;" horiz-adv-x="1241" 
d="M481 348l-360 287v213l385 -303v774l-383 -307v215l491 395l504 -395v-215l-389 303v-770l387 303v-213l-362 -283l362 -286v-213l-387 303v-303h-223v303l-385 -303v213z" />
    <glyph glyph-name="adieresis" unicode="&#xe4;" horiz-adv-x="1538" 
d="M993 846q-49 0 -90 -42t-41 -89q0 -49 41 -89t90 -40q48 0 88.5 39.5t40.5 89.5q0 48 -40.5 89.5t-88.5 41.5zM885 395q-66 26 -119.5 76t-84 113.5t-30.5 130.5q0 82 49.5 161.5t129.5 129t163 49.5q82 0 161 -49.5t128 -129.5t49 -161q0 -101 -66 -191t-163 -129v-26
l313 2v-221h-313v-297h-217v297h-762v219q101 89 166 246.5t65 338.5q0 105 -23.5 209.5t-75.5 213t-132 208.5h221q130 -164 188 -333t58 -330q0 -133 -36.5 -251.5t-95 -197t-114.5 -102.5l541 -2v26z" />
    <glyph glyph-name="Odieresis" unicode="&#xd6;" horiz-adv-x="1223" 
d="M698 930h189q-22 63 -72.5 115t-116.5 77v-192zM502 930v192q-63 -24 -114 -75t-77 -117h191zM502 555v203h-193q26 -68 76.5 -121t116.5 -82zM698 557q67 28 118.5 82.5t72.5 118.5h-191v-201zM698 377v-524h-196v524q-75 19 -145 64.5t-123 110t-82 139.5t-29 149
q0 110 60.5 215t160.5 176q-68 51 -116 112t-76.5 133t-28.5 146h172q0 -69 40 -137t104.5 -112.5t133.5 -53.5h54q68 0 133 45t105 116.5t40 141.5h174q0 -110 -61.5 -215.5t-159.5 -175.5q99 -71 160 -175.5t61 -215.5q0 -75 -30.5 -149.5t-84 -139t-123.5 -110
t-143 -64.5z" />
    <glyph glyph-name="Adieresis" unicode="&#xc4;" 
d="M1892 737h-245q0 117 -54 233t-146 207t-206.5 145t-232.5 54q-156 0 -305 -92.5t-241.5 -241.5t-92.5 -305h-246q0 162 74.5 321.5t202 287.5t286 202t322.5 74t322 -74t286 -202t202 -286t74 -323zM897 332h-479v221h479v479h221v-479h479v-221h-479v-479h-221v479z
" />
    <glyph glyph-name="odieresis" unicode="&#xf6;" horiz-adv-x="1534" 
d="M1178 86l-400 395h-26l-398 -395h824zM653 713v499l-530 -399v330l639 479l651 -479v-330l-536 393v-493l534 -531v-329h-1288l2 4l-4 -4v329z" />
    <glyph glyph-name="section" unicode="&#xa7;" horiz-adv-x="1661" 
d="M715 944q-87 17 -162 47.5t-140.5 77.5t-133.5 115.5t-156 171.5v266q172 -205 305.5 -314t286.5 -143v373h221v-375q158 31 293.5 141t308.5 318v-266q-82 -99 -154.5 -170.5t-138 -118.5t-142.5 -78t-167 -47v-410q175 -29 306 -121.5t296 -291.5v-266
q-89 107 -161.5 182.5t-141.5 131t-143.5 93t-155.5 51.5v-385h-221v383q-150 -32 -284.5 -141t-307.5 -315v266q86 102 156 172t137 117.5t139.5 77t159.5 44.5v414z" />
    <glyph glyph-name="asterisk" unicode="*" horiz-adv-x="1425" 
d="M823 1253v-235q127 -32 237 -122.5t176.5 -215.5t66.5 -250q0 -141 -85.5 -276.5t-223 -218t-281.5 -82.5q-106 0 -210 47t-189.5 131t-136 187.5t-54.5 211.5q0 131 66 255t177 213t236 120v235l-123 -123h-258l492 492l491 -492h-258zM1049 295q-39 84 -137 140.5
t-210 56.5q-70 0 -136.5 -22.5t-120 -63t-80.5 -89.5q25 -70 75 -124.5t119 -86.5t141 -32q105 0 202 61.5t147 159.5zM1067 524q-24 75 -81 141.5t-133.5 106t-152.5 39.5q-71 0 -138 -35t-118 -94t-77 -129q152 135 333 135q90 0 187.5 -41t179.5 -123z" />
    <glyph glyph-name="oslash" unicode="&#xf8;" horiz-adv-x="2507" 
d="M377 637h-254v221h258q26 146 108 284.5t205.5 248t268.5 170.5t290 61q146 0 292.5 -61.5t267.5 -169t203.5 -245.5t109.5 -288h258v-221h-254q-22 -151 -104 -292.5t-205.5 -252.5t-272 -175t-295.5 -64q-146 0 -294 63.5t-272 175.5t-205 253.5t-105 291.5zM1878 858
q-25 101 -87 196.5t-147.5 167t-186.5 113t-204 41.5q-102 0 -203 -41.5t-187 -114t-146.5 -165.5t-87.5 -197h1249zM625 637q30 -140 125 -264t229.5 -199.5t273.5 -75.5q138 0 273.5 75.5t230.5 199.5t125 264h-1257z" />
    <glyph glyph-name="question" unicode="?" horiz-adv-x="2028" 
d="M1565 1151q47 0 89 40t42 89q0 52 -41.5 91.5t-89.5 39.5q-49 0 -89 -40t-40 -91q0 -48 40.5 -88.5t88.5 -40.5zM465 1151q31 0 61 19t49 49t19 61q0 52 -40.5 91.5t-88.5 39.5q-51 0 -91 -40t-40 -91q0 -31 18.5 -61.5t48.5 -49t64 -18.5zM803 1264q0 -138 -17 -230.5
t-45 -159t-89.5 -179.5t-86.5 -165q-49 -99 -49 -186q0 -85 47.5 -150t141 -101t225.5 -36q51 0 78 2q26 -2 73 -2q201 0 309.5 77.5t108.5 207.5q0 89 -49 188q-29 62 -87.5 169.5t-87 177.5t-45 163.5t-16.5 237.5q0 82 51.5 163t133.5 131t166 50q64 0 123.5 -27.5
t110.5 -78.5t78.5 -111t27.5 -125q0 -82 -49.5 -161t-129.5 -128t-161 -49q-79 0 -150 41q22 -53 49 -97.5t101.5 -161.5t109.5 -183q51 -96 51 -201q0 -102 -52 -192t-141 -157.5t-203.5 -105t-237.5 -37.5q-56 0 -84 5q-29 -5 -84 -5q-122 0 -237 37.5t-206 105.5
t-142.5 157.5t-51.5 191.5q0 101 53 201q29 55 101 166.5t101.5 159t55.5 106.5q-73 -31 -133 -31q-82 0 -162.5 49t-130 128t-49.5 161q0 83 49.5 163t129.5 129.5t163 49.5q81 0 160.5 -53t128.5 -138t49 -167z" />
    <glyph glyph-name="parenright" unicode=")" horiz-adv-x="2363" 
d="M295 1030v-450h323q121 0 195 44.5t74 176.5q0 229 -238 229h-354zM1829 672q0 -102 39 -164t114 -62q59 0 108.5 46t49.5 149q0 246 -153 246q-99 0 -128.5 -64.5t-29.5 -150.5zM1274 784h-90q8 191 239 191q36 0 85.5 -11.5t89.5 -47.5t40 -103v-332q0 -35 31 -35l31 7
v-72l-51 -12q-59 0 -79 23.5t-24 64.5q-83 -92 -209 -92q-80 0 -131 45.5t-51 119.5q0 59 36 114t140 69l160 20q23 2 38 16t15 52q0 94 -139 94q-73 0 -99 -32t-32 -79zM1540 580v96q-29 -22 -160 -37q-54 -9 -89.5 -28t-35.5 -68q0 -99 107 -99q70 0 124 40t54 96z
M2148 459q-20 -37 -48 -58t-58 -28.5t-62 -7.5q-133 0 -192 97.5t-59 223.5q0 125 63.5 207t175.5 82q116 0 174 -101v306h99v-799h-93v78zM1155 211h1086v-102h-1086v102zM1190 -147h-178q-11 8 -29 71t-59 234q-25 107 -43.5 156t-45 71t-67 28.5t-131.5 6.5h-342v-567
h-172v1325h514q189 0 311.5 -81.5t122.5 -275.5q0 -71 -14.5 -122t-37.5 -83.5t-53.5 -55.5t-68.5 -46q58 -20 85 -47.5t37.5 -62t41.5 -158.5q7 -26 24.5 -89.5t35.5 -122t33.5 -100t35.5 -81.5z" />
    <glyph glyph-name="exclamdown" unicode="&#xa1;" horiz-adv-x="1473" 
d="M502 618v148h221v-246q36 -4 63 -4q26 0 64 4v246h221v-143q47 35 88 98l191 -127q-100 -165 -279 -242v-499h-221v444q-19 -2 -64 -2t-63 2v-444h-221v503q-116 58 -202 157.5t-131.5 217.5t-45.5 227q0 162 74 315.5t224.5 251t364.5 97.5q195 0 337.5 -81.5
t226.5 -217.5l-191 -127q-59 94 -157 149.5t-216 55.5q-119 0 -221 -59t-161.5 -161.5t-59.5 -222.5q0 -98 43 -188t115 -152z" />
    <glyph glyph-name="cent" unicode="&#xa2;" horiz-adv-x="1255" 
d="M641 598q-14 -2 -43 -2q-62 0 -121 16q-98 32 -181.5 114.5t-130 192t-46.5 218.5q0 65 18 127q31 100 111.5 181t188.5 128t216 47q74 0 131 -21q88 -26 164.5 -96t124.5 -164l-188 -98q-56 112 -168 148q-31 10 -74 10q-97 0 -182 -58t-113 -145q-10 -27 -10 -74
q0 -98 57 -186t144 -115q54 -16 114 -16q125 0 209 63v-487h271v-221h-271v-307h-221v307h-270v221h270v217z" />
    <glyph glyph-name="sterling" unicode="&#xa3;" horiz-adv-x="1130" 
d="M344 295q0 -56 32.5 -106.5t84 -82.5t104.5 -32q55 0 106 32t83 83t32 106t-32 106t-83 83t-106 32q-53 0 -104.5 -32t-84 -82.5t-32.5 -106.5zM455 723v137h-332v221h332v115q-89 28 -165.5 94t-121.5 154.5t-45 177.5h221q0 -56 32.5 -106.5t84 -82.5t104.5 -32
q55 0 106 32t83 83t32 106h222q0 -89 -45 -177t-122 -154.5t-165 -94.5v-115h332v-221h-332v-139q67 -21 127.5 -64t106.5 -101.5t72 -125t26 -135.5q0 -80 -36.5 -159t-101.5 -144t-144.5 -102t-160.5 -37q-80 0 -158.5 36.5t-144.5 102.5t-102.5 144.5t-36.5 158.5
q0 69 26.5 138t70.5 125.5t105.5 101t129.5 63.5z" />
    <glyph glyph-name="yen" unicode="&#xa5;" horiz-adv-x="1626" 
d="M809 1450l-465 -745h938zM1503 709v-193h-532v-147h332v-222h-332v-294h-221v294h-332v222h332v147h-627v189l588 917h202z" />
    <glyph glyph-name="brokenbar" horiz-adv-x="1186" 
d="M330 1620l-41 137h149l41 -137l238 2l41 135h143l-41 -135h223v-983h-378v-258h270v-221h-270v-307h-222v307h-270v221h270v258h-381v981v2l4 -2h224zM793 1401l-127 -414h-144l-125 414h-73v-541h540v541h-71zM545 1401l49 -170h8l49 170h-106z" />
    <glyph glyph-name="dieresis" unicode="&#xa8;" horiz-adv-x="1976" 
d="M123 453v221h481l365 -600h80l323 600h481v-221h-383l-344 -600h-237l-383 600h-383zM897 1092v530h221v-530h352l-344 -600h-237l-383 600h391z" />
    <glyph glyph-name="copyright" unicode="&#xa9;" horiz-adv-x="1720" 
d="M1217 741h380v-221h-305v-667h-221v667h-424v-667h-221v667h-303v221h381q-76 50 -115 117q-34 57 -66 146t-92 272q-3 8 -11 41.5t-17 49.5t-28.5 25t-51.5 9v221q79 0 124 -14.5t65.5 -38t31 -64.5t16.5 -65q42 -152 82 -244.5t86 -173.5q49 -81 118 -125.5t214 -44.5
q147 0 216 45t116 125q45 76 85.5 171t82.5 247q6 24 16.5 64t32 65t65.5 39t123 14v-221q-32 0 -51.5 -9t-28 -24t-14.5 -41.5t-14 -50.5q-110 -339 -158 -418q-37 -66 -114 -117z" />
    <glyph glyph-name="ordfeminine" unicode="&#xaa;" horiz-adv-x="1769" 
d="M887 1413q-31 0 -61.5 -18.5t-49 -49t-18.5 -63.5q0 -32 18.5 -62t49 -48.5t61.5 -18.5q47 0 89 40t42 89q0 50 -41.5 90.5t-89.5 40.5zM887 324q-50 0 -89.5 -40.5t-39.5 -88.5q0 -51 39.5 -91.5t89.5 -40.5q48 0 89.5 40.5t41.5 91.5q0 48 -41.5 88.5t-89.5 40.5z
M582 53l-125 -200h-334v186h219l446 739v180q-102 37 -172.5 130t-70.5 194q0 82 49.5 161.5t129.5 129t163 49.5q90 0 172.5 -55.5t130.5 -141.5l123 197h334v-186h-213l-449 -727v-195q101 -36 171.5 -127.5t70.5 -191.5q0 -83 -49.5 -163t-129 -129.5t-161.5 -49.5
q-60 0 -119 26t-106.5 70.5t-79.5 103.5z" />
    <glyph glyph-name="degree" unicode="&#xb0;" 
d="M1892 737q0 -164 -74 -322t-202 -285t-288 -202t-320 -75t-320.5 74.5t-287.5 202t-202 287.5t-75 320q0 162 74.5 321.5t202 287.5t286 202t322.5 74t322 -74t286 -202t202 -286t74 -323zM344 737q0 -119 56 -238.5t152 -216.5t215.5 -152.5t240.5 -55.5t240.5 55
t217 152.5t152.5 216.5t55 239q0 121 -55.5 242t-152 217t-216 151.5t-241.5 55.5q-120 0 -240.5 -56t-215.5 -151.5t-151.5 -216t-56.5 -242.5zM563 737q0 83 37.5 163.5t102 145t144.5 101.5t161 37q83 0 163.5 -37t144.5 -101t101 -145t37 -164q0 -80 -37 -160t-101 -144
t-144.5 -102t-163.5 -38q-108 0 -212 64.5t-168.5 168.5t-64.5 211zM786 737q0 -54 33.5 -105t84 -82.5t104.5 -31.5q55 0 105.5 31.5t83 83t32.5 104.5t-31.5 104.5t-83.5 83t-106 31.5q-82 0 -152 -68t-70 -151z" />
    <glyph glyph-name="plusminus" unicode="&#xb1;" horiz-adv-x="2310" 
d="M872 541q0 -69 40.5 -134t106.5 -106t134 -41q67 0 134 41t108 107t41 133q0 68 -41 133.5t-106.5 106t-135.5 40.5t-135 -40.5t-105.5 -105t-40.5 -134.5zM1036 541q0 43 36.5 78.5t80.5 35.5q45 0 80 -34t35 -80q0 -47 -35 -81t-80 -34q-44 0 -80.5 35.5t-36.5 79.5z
M1602 647q18 -49 18 -106q0 -78 -35 -159.5t-95.5 -146t-135.5 -106.5t-158 -53h741zM1483 852l-332 569l-342 -583q69 78 159 124t185 46q91 0 175.5 -41.5t154.5 -114.5zM1108 76q-108 13 -205.5 82.5t-157 172t-59.5 210.5q0 66 19 123l-340 -588h743zM2187 76v-223
h-2064v223l885 1542h286z" />
    <glyph glyph-name="twosuperior" 
d="M1006 27q-111 -63 -208 -103.5t-180 -59t-149 -18.5q-122 0 -200 51t-114 128.5t-36 158.5q0 32 8 72q30 125 74 201.5t94 114t145.5 79.5t104.5 47v-221q-88 -33 -114 -45.5t-46.5 -41t-40.5 -95.5q-18 -61 -18 -107q0 -129 141 -129q89 0 214 49.5t216 108.5v1405h221
v-1405q98 -64 218 -112t210 -48q144 0 144 131q0 42 -19 107q-20 67 -40 95.5t-49 42.5t-112 44v221q83 -37 141.5 -63t108.5 -63t94.5 -114.5t73.5 -201.5q8 -40 8 -70q0 -81 -36.5 -158.5t-116 -129.5t-201.5 -52q-222 0 -536 181z" />
    <glyph glyph-name="threesuperior" 
d="M1892 737q0 -164 -74 -322t-202 -285t-288 -202t-320 -75t-320.5 74.5t-287.5 202t-202 287.5t-75 320q0 162 74.5 321.5t202 287.5t286 202t322.5 74t322 -74t286 -202t202 -286t74 -323zM1343 1276q-199 127 -335 127q-143 0 -336 -129zM1546 403q127 192 127 334
q0 145 -127 334v-668zM1343 1071h-671v-668h671v668zM672 182q161 -108 336 -108q171 0 335 108h-671zM453 1071q-109 -163 -109 -334q0 -84 28.5 -170.5t80.5 -163.5v668z" />
    <glyph glyph-name="acute" unicode="&#xb4;" 
d="M1892 737q0 -164 -74 -322t-202 -285t-288 -202t-320 -75t-320.5 74.5t-287.5 202t-202 287.5t-75 320q0 162 74.5 321.5t202 287.5t286 202t322.5 74t322 -74t286 -202t202 -286t74 -323zM860 369q0 53 46 99t102 46q35 0 69 -21.5t55 -56t21 -67.5q0 -55 -45.5 -101.5
t-99.5 -46.5t-101 47t-47 101zM860 1118q0 54 46 100t102 46q35 0 69 -21.5t55 -56t21 -68.5q0 -56 -44.5 -101.5t-100.5 -45.5t-102 46t-46 101zM379 637q30 -140 125 -264t230.5 -199.5t273.5 -75.5q139 0 273.5 75.5t229.5 199.5t125 264h-1257zM383 858h1249
q-25 103 -86 197t-147.5 166t-187.5 113.5t-203 41.5t-202.5 -41t-187.5 -114t-147.5 -166t-87.5 -197z" />
    <glyph glyph-name="mu" unicode="&#xb5;" horiz-adv-x="2310" 
d="M573 403l-176 -303h1508l-174 303h-1158zM698 618h908l-127 218h-656zM1354 1053l-203 348l-203 -348h406zM2187 98v-245h-2064v245l874 1520h308z" />
    <glyph glyph-name="paragraph" unicode="&#xb6;" horiz-adv-x="1509" 
d="M807 1489h496l-3 -2h5v-1841h-150v1718h-39l-205 -137v2l203 -498l-203 137v-1222h-149v1325l-117 78l-520 -347l223 549l-348 238h457l178 418l172 -418v0z" />
    <glyph glyph-name="periodcentered" unicode="&#xb7;" horiz-adv-x="885" 
d="M524 631h258l-204 -137l106 -256l-242 168l-274 -185l121 283l-187 127h240l92 219z" />
    <glyph glyph-name="cedilla" unicode="&#xb8;" horiz-adv-x="1843" 
d="M1430 1401v-1548h-222v1548h-573v-1548h-221v1548h-291v221h1597v-221h-290z" />
    <glyph glyph-name="onesuperior" horiz-adv-x="2312" 
d="M838 811l270 -444l-246 -150l-186 313l-232 -399h1414l-707 1217zM678 1073l319 545h308l884 -1487v-278h-2066v278l395 670l-338 575l240 123z" />
    <glyph glyph-name="ordmasculine" unicode="&#xba;" horiz-adv-x="1130" 
d="M344 848q0 -56 32.5 -106.5t84 -82.5t104.5 -32q55 0 106 32t83 83t32 106q0 53 -32 104.5t-82.5 84t-106.5 32.5q-54 0 -105 -32.5t-83.5 -83.5t-32.5 -105zM455 283v137q-68 21 -128 63.5t-106.5 102t-72 126t-25.5 136.5q0 122 88 248q-88 118 -88 247q0 81 37 161
t101 144t144 101t160 37q81 0 162 -37.5t144 -100.5t100 -143.5t37 -161.5q0 -122 -88 -247q88 -126 88 -248q0 -89 -45 -177t-122 -154.5t-165 -94.5v-139h332v-222h-332v-208h-221v208h-332v222h332zM377 1239q100 51 188 51q87 0 189 -51q32 50 32 104t-32 105.5
t-82.5 84t-106.5 32.5q-54 0 -105 -32.5t-83.5 -83.5t-32.5 -106t33 -104z" />
    <glyph glyph-name="onequarter" horiz-adv-x="1636" 
d="M383 1442l432 -432l434 432h-866zM1513 1446l-589 -590v-821h338v-182h-885v182h336v821l-590 586v180h1390v-176z" />
    <glyph glyph-name="guillemotright" unicode="&#xbb;" horiz-adv-x="1794" 
d="M1274 1450q-57 0 -109.5 -32.5t-85 -85t-32.5 -107.5q0 -57 33 -110t85 -85.5t109 -32.5q55 0 107 32.5t85 85.5t33 110q0 41 -19.5 82t-51 72.5t-72.5 51t-82 19.5zM545 541q-31 27 -48 54t-41 73.5t-40.5 68t-36.5 21.5l-168 -41v196l276 60q45 -86 72 -137.5t48.5 -84
t47.5 -55.5q30 42 79 106.5t96 120.5t100 111q-49 86 -49 191q0 79 33.5 152t89.5 128t130 86t154 31q104 0 191.5 -54t139.5 -146t52 -197q0 -106 -54 -196.5t-146.5 -144t-196.5 -53.5q-108 0 -201 54q-66 -71 -138.5 -162.5t-123.5 -161.5q21 -41 42 -64.5t56.5 -45.5
t104.5 -57t102 -52l-63 -272h-201l43 168q-50 21 -79.5 34.5t-68 42.5t-61.5 68q-82 -116 -142 -198t-133.5 -169t-150.5 -163l-147 147q121 121 215.5 242t216.5 299z" />
    <glyph glyph-name="threequarters" horiz-adv-x="1622" 
d="M950 598q52 -64 79.5 -134.5t27.5 -144.5q0 -145 -107 -278q51 -14 82 -14q72 0 139.5 42t110.5 110t43 140t-43 139.5t-110.5 110.5t-139.5 43q-31 0 -82 -14zM811 -82q-111 -65 -221 -65q-113 0 -222.5 68t-177 176.5t-67.5 221.5t68 222t177 177t222 68q114 0 221 -69
q107 69 221 69q87 0 170.5 -38.5t151.5 -106.5t106.5 -151.5t38.5 -170.5q0 -86 -38.5 -168.5t-105.5 -150t-153 -107.5t-170 -40q-110 0 -221 65zM811 143q35 38 53.5 84t18.5 92q0 94 -72 177q-34 -38 -53 -84t-19 -93q0 -93 72 -176zM672 598q-51 14 -82 14
q-72 0 -139.5 -43t-110.5 -110.5t-43 -139.5t43 -140t110.5 -110t139.5 -42q31 0 82 14q-107 133 -107 278q0 74 27.5 144.5t79.5 134.5zM637 1206l-223 154h286l111 262l109 -262h309l-244 -164l125 -309l-291 198l-327 -217z" />
    <glyph glyph-name="questiondown" unicode="&#xbf;" 
d="M797 508l860 1114h235l-934 -1208q54 -19 113 -25q46 -6 88 -6q142 0 238.5 58t162 162t134.5 269l198 -47q-68 -171 -135 -287t-152 -196.5t-199 -121t-267 -40.5q-45 0 -68 2q-121 6 -244 64l-301 -393h-235l381 493q-104 87 -184 212.5t-126.5 279.5t-52.5 313
l-186 39v215l383 -78q0 -280 77.5 -490.5t213.5 -328.5z" />
    <glyph glyph-name="onehalf" horiz-adv-x="1745" 
d="M774 1085v537h197v-537q121 21 225 80.5t166.5 144t62.5 175.5l177 137q20 -75 20 -135q0 -103 -45.5 -199.5t-127.5 -176t-192 -136.5q82 -56 126 -137t44 -170q0 -108 -60.5 -198.5t-178.5 -145.5q61 -71 61 -166q0 -114 -79.5 -192t-198.5 -103v-10h-197v10
q-120 25 -200 103t-80 192q3 99 67 166q-120 53 -185 144.5t-65 199.5q0 90 44.5 170t127.5 137q-161 84 -260.5 221t-99.5 291q0 64 22 135l166 -137q0 -66 38 -132.5t102.5 -121t147 -92t175.5 -54.5zM774 244q-84 -36 -84 -86q0 -25 23.5 -48.5t60.5 -37.5v172zM971 72
q35 13 58.5 37.5t23.5 48.5q0 49 -82 86v-172zM774 870q-109 -20 -187.5 -78t-78.5 -124q0 -64 78 -121t188 -80v403zM971 870v-403q72 16 130.5 46t94 71t35.5 84t-35 85.5t-94 72.5t-131 44z" />
    <glyph glyph-name="Agrave" unicode="&#xc0;" horiz-adv-x="1257" 
d="M639 1401q-73 0 -141 -43t-111 -111t-43 -141q0 -72 42.5 -140.5t111 -111.5t141.5 -43t141.5 43t111 111.5t42.5 140.5q0 73 -43 141t-111 111t-141 43zM784 616q-76 -26 -145 -26q-126 0 -246 75t-195 195t-75 246t75 246t195 195t246 75t246 -75t195 -195t75 -246
q0 -98 -46 -193.5t-128 -175.5q52 -49 91.5 -109.5t61 -127t21.5 -131.5q0 -126 -75 -246t-195 -195t-246 -75v221q73 0 141.5 43t111 111.5t42.5 140.5q0 71 -41.5 138t-108.5 109z" />
    <glyph glyph-name="Aacute" unicode="&#xc1;" horiz-adv-x="1257" 
d="M639 74q73 0 141.5 43t111 111.5t42.5 140.5q0 73 -43 141t-111 111t-141 43t-141 -43t-111 -111t-43 -141q0 -72 42.5 -140.5t111 -111.5t141.5 -43zM981 737q81 -78 127.5 -174t46.5 -194q0 -126 -75 -246t-195 -195t-246 -75t-246 75t-195 195t-75 246t75 246t195 195
t246 75q64 0 147 -27q41 25 75.5 66t53.5 88t19 94q0 73 -43 141t-111 111t-141 43v221q126 0 246 -75t195 -195t75 -246q0 -100 -46 -195t-128 -174z" />
    <glyph glyph-name="Acircumflex" unicode="&#xc2;" horiz-adv-x="1262" 
d="M614 598v-217h271v-221h-271v-307h-221v307h-270v221h270v487q85 -63 209 -63q59 0 115 16q87 27 144 115t57 186q0 44 -11 74q-17 56 -63 102.5t-107.5 73.5t-124.5 27q-43 0 -73 -10q-112 -36 -168 -148l-189 98q30 58 76 113t100 92.5t113 54.5q57 21 131 21
q107 0 214.5 -46.5t188 -127.5t113.5 -182q19 -65 19 -127q0 -109 -47 -218.5t-129.5 -192t-182.5 -114.5q-59 -16 -119 -16q-30 0 -45 2z" />
    <glyph glyph-name="Atilde" unicode="&#xc3;" horiz-adv-x="1262" 
d="M614 877q15 2 45 2q56 0 119 -17q102 -33 183.5 -114.5t128.5 -191t47 -218.5q0 -62 -19 -127q-31 -99 -111.5 -181.5t-189 -128.5t-215.5 -46q-72 0 -131 20q-91 28 -165.5 98t-123.5 162l189 98q56 -111 168 -147q30 -10 73 -10q94 0 181 58.5t114 144.5q11 30 11 73
q0 65 -26 127.5t-72.5 109.5t-102.5 64q-54 17 -115 17q-123 0 -209 -64v488h-270v221h270v307h221v-307h271v-221h-271v-217z" />
    <glyph glyph-name="Ccedilla" unicode="&#xc7;" horiz-adv-x="1130" 
d="M344 627q0 -56 32.5 -106.5t84 -82.5t104.5 -32q55 0 106 32t83 83t32 106q0 53 -32 104.5t-82.5 84t-106.5 32.5q-54 0 -105 -32.5t-83.5 -83.5t-32.5 -105zM365 188q-3 -6 -9.5 -18t-9 -19.5t-2.5 -19.5q0 -56 32.5 -106.5t84 -82.5t104.5 -32q55 0 106 32t83 83
t32 106q0 57 -20 57l197 103q9 0 26.5 -39.5t18.5 -120.5q0 -80 -36.5 -159t-101.5 -144t-144.5 -102t-160.5 -37q-80 0 -158.5 36.5t-144.5 102.5t-102.5 144.5t-36.5 158.5q0 82 37 160zM676 1413h332v-221h-332v-139q63 -20 126 -64t109 -103t71.5 -124.5t25.5 -134.5
q0 -80 -36.5 -159t-101 -143.5t-144.5 -102.5t-161 -38q-80 0 -159 37.5t-144.5 103t-102 144t-36.5 158.5q0 93 44 180.5t120 153t168 94.5v137h-332v221h332v209h221v-209z" />
    <glyph glyph-name="Egrave" unicode="&#xc8;" horiz-adv-x="1130" 
d="M365 211q-21 -44 -21 -80q0 -56 32.5 -106.5t84 -82.5t104.5 -32q55 0 106 32t83 83t32 106q0 57 -20 57l197 103q9 0 26.5 -39.5t18.5 -120.5q0 -80 -36.5 -159t-101.5 -144t-144.5 -102t-160.5 -37q-80 0 -158.5 36.5t-144.5 102.5t-102.5 144.5t-36.5 158.5
q0 82 37 160zM344 1180q0 -55 32.5 -106t83.5 -83.5t105 -32.5q56 0 106.5 32.5t82.5 84t32 105.5q0 53 -32 104.5t-82.5 84t-106.5 32.5q-54 0 -105 -32.5t-83.5 -83.5t-32.5 -105zM455 393h-332v221h332v138q-91 27 -167.5 93t-120.5 154t-44 181q0 81 37 160.5t101 143.5
t144 101t160 37q81 0 162 -37.5t144 -100.5t100 -143t37 -161q0 -90 -45 -178t-122 -154t-165 -94v-140h332v-221h-332v-209h-221v209z" />
    <glyph glyph-name="Eacute" unicode="&#xc9;" horiz-adv-x="1130" 
d="M123 1343q0 81 37 161t101 144t144 101t160 37q81 0 162 -37.5t144 -100.5t100 -143.5t37 -161.5q0 -80 -36.5 -159t-101.5 -144t-144.5 -102t-160.5 -37q-115 0 -216.5 63.5t-163.5 166.5t-62 212zM344 1343q0 -54 32.5 -105t83.5 -83.5t105 -32.5q56 0 106.5 32.5
t82.5 84t32 104.5q0 54 -32 105.5t-82.5 84t-106.5 32.5q-54 0 -105 -32.5t-83.5 -83.5t-32.5 -106zM455 61h-332v222h332v139q-89 28 -165.5 94t-121.5 154.5t-45 177.5q0 83 37 160l205 -101q-7 -14 -12 -23t-7 -16.5t-2 -19.5q0 -56 32.5 -106.5t84 -82.5t104.5 -32
q55 0 106 32t83 83t32 106q0 59 -20 59l197 101q9 0 26.5 -39.5t18.5 -120.5q0 -89 -45 -177t-122 -154.5t-165 -94.5v-139h332v-222h-332v-208h-221v208z" />
    <glyph glyph-name="Ecircumflex" unicode="&#xca;" horiz-adv-x="1327" 
d="M1204 1004h-207v206h-1288v207h1495v-413z" />
    <glyph glyph-name="Edieresis" unicode="&#xcb;" horiz-adv-x="1792" 
d="M465 545q-52 0 -91.5 -40.5t-39.5 -88.5q0 -51 40 -91t91 -40q48 0 88.5 39.5t40.5 91.5q0 31 -19 61t-49 49t-61 19zM1110 1192q-50 0 -89.5 -41.5t-39.5 -89.5q0 -31 18.5 -61.5t49 -49t61.5 -18.5q33 0 63.5 18.5t49 49t18.5 61.5q0 49 -40 90t-91 41zM864 668h979
v-412h-207v207h-835q1 -12 1.5 -22.5t0.5 -24.5q0 -82 -49 -162.5t-128 -130t-161 -49.5q-83 0 -163 49.5t-129.5 129.5t-49.5 163q0 82 49.5 161t130 128t162.5 49q69 0 149 -41l197 196q-41 80 -41 152q0 82 49 161.5t128.5 129t162.5 49.5q64 0 123.5 -27.5t110.5 -78.5
t78.5 -110.5t27.5 -123.5q0 -83 -49.5 -162.5t-129 -128.5t-161.5 -49q-79 0 -152 41z" />
    <glyph glyph-name="Igrave" unicode="&#xcc;" horiz-adv-x="2372" 
d="M1362 281h680v206h207v-413h-1084l-393 901l-364 -901h-285l493 1138h-493v205h1327v-205h-487z" />
    <glyph glyph-name="Icircumflex" unicode="&#xce;" horiz-adv-x="2200" 
d="M1092 545q-52 0 -91.5 -40.5t-39.5 -88.5q0 -51 40 -91t91 -40q48 0 88.5 39.5t40.5 91.5q0 31 -19 61t-49 49t-61 19zM1737 1192q-50 0 -89.5 -41.5t-39.5 -89.5q0 -31 18.5 -61.5t49 -49t61.5 -18.5q48 0 89.5 39.5t41.5 89.5q0 49 -41 90t-90 41zM1305 776h-975v-207
h-207v414h1286q-12 37 -12 78q0 82 49 161.5t128.5 129t162.5 49.5q64 0 123.5 -27.5t110.5 -78.5t78.5 -110.5t27.5 -123.5q0 -83 -49.5 -162.5t-129 -128.5t-161.5 -49q-81 0 -152 41l-196 -197q41 -74 41 -149q0 -82 -49 -162.5t-128 -130t-161 -49.5q-83 0 -163 49.5
t-129.5 129.5t-49.5 163q0 82 49.5 161t130 128t162.5 49q69 0 149 -41z" />
    <glyph glyph-name="Iacute" unicode="&#xcd;" horiz-adv-x="1327" 
d="M123 987v414h1563v-207h-1356v-207h-207z" />
    <glyph glyph-name="Idieresis" unicode="&#xcf;" horiz-adv-x="2372" 
d="M1010 281l405 931h-493v205h1327v-205h-488l488 -1138h-285l-393 901l-365 -901h-1083v413h207v-206h680z" />
    <glyph glyph-name="comma" unicode="," horiz-adv-x="569" 
d="M178 0v217h213v-201q0 -178 -71 -242.5t-142 -74.5v94q58 5 83.5 64.5t25.5 142.5h-109z" />
    <glyph glyph-name="period" unicode="." horiz-adv-x="1143" 
d="M299 1311l-149 149q75 75 167.5 118.5t186.5 43.5q126 0 246 -75t195 -195t75 -246q0 -80 -32.5 -161.5t-90 -151t-130 -118.5t-153.5 -71v-223h271v-221h-271v-307h-221v307h-270v221h270v223q-138 38 -246 146l152 155q94 -94 205 -94q73 0 141.5 43t111 111.5
t42.5 140.5q0 73 -43 141t-111 111t-141 43q-54 0 -108 -24.5t-97 -65.5z" />
    <glyph glyph-name="less" unicode="&#x3c;" horiz-adv-x="946" 
d="M344 74v-221h-221v221h221zM344 184h-221v488q22 -10 57 -10q17 1 30.5 1.5t35.5 0.5q92 0 174 55t132 144.5t50 180.5q0 71 -29 133.5t-79 111.5t-115.5 78.5t-132.5 33.5q-36 2 -63.5 5t-59.5 5v211h110q108 0 214 -48.5t188 -129.5t133 -186t55 -214
q0 -100 -38.5 -195t-106 -175.5t-152.5 -136t-182 -80.5v-273z" />
    <glyph glyph-name="asciicircum" unicode="^" 
d="M1450 737q4 -164 32.5 -288.5t81.5 -224.5t130 -184t198 -187h-260q-145 122 -226 231.5t-124 247.5q-131 -111 -274 -111q-151 0 -267 107q-25 -88 -74 -168.5t-118.5 -153t-165.5 -153.5h-260q160 133 249 236.5t141 257t52 390.5q-6 215 -53 367t-139.5 269.5
t-249.5 248.5h260q143 -120 226 -230t124 -249q60 51 130.5 80.5t144.5 29.5q71 0 141 -27.5t125 -78.5q26 90 74.5 169t116.5 150t167 156h260q-153 -129 -244.5 -240.5t-134 -213t-53 -196.5t-10.5 -235zM1229 821q-1 52 -34 101t-84 79.5t-103 30.5q-49 0 -98 -27.5
t-83 -74.5t-41 -96v-191q7 -50 40.5 -97t82.5 -75.5t99 -28.5q80 0 146.5 63t74.5 138v178z" />
    <glyph glyph-name="bracketleft" unicode="[" horiz-adv-x="2359" 
d="M1536 1032q0 221 -135 221q-39 0 -68.5 -20t-29.5 -53v-885h-222v907q0 91 -26.5 145t-96.5 54q-135 0 -135 -221v-885h-221v631q0 180 -123 180q-135 0 -135 -221v-1032h-221v1032q0 112 44 214t125 165t187 63q78 0 135 -33q32 143 122.5 235.5t221.5 92.5
q63 0 118 -23.5t97.5 -66t69.5 -98.5q74 41 158 41q118 0 205 -76.5t125 -198.5q64 39 149 39q106 0 187 -63t125 -165t44 -214v-944h-221v944q0 221 -135 221q-64 0 -90 -44t-33 -126v-553h-221v737z" />
    <glyph glyph-name="bracketright" unicode="]" horiz-adv-x="1835" 
d="M920 20q18 83 66 159.5t117.5 131t147.5 72.5q43 8 133 8q-55 87 -93 161t-65 148t-41 144.5t-14 138.5q0 96 31 184q-79 12 -152.5 55t-129.5 109q-55 -65 -130 -108.5t-153 -55.5q31 -88 31 -184q0 -135 -55 -284.5t-158 -307.5q90 0 135 -8q76 -17 146 -71.5t118 -132
t66 -159.5zM1300 168q-45 -11 -84.5 -55t-62.5 -103.5t-23 -113.5q0 -13 5 -43h-433q5 14 5 45q0 53 -22.5 112.5t-61.5 103.5t-84 56q-33 8 -70 8q-29 0 -54.5 -5.5t-50.5 -13.5t-42 -14l-199 99q100 117 175 237t114 235t39 224q0 161 -93 301q-59 42 -108 102t-76 128.5
t-27 136.5h222q0 -54 32 -105.5t82.5 -84t106.5 -32.5q43 0 94.5 25.5t88 75.5t36.5 121h221q0 -71 37 -121t88 -75.5t94 -25.5q56 0 106.5 32.5t82.5 84t32 105.5h222q0 -104 -59 -202.5t-154 -164.5q-93 -139 -93 -301q0 -303 326 -694l-199 -101q-17 5 -39.5 13t-45 13
t-56.5 5q-36 0 -72 -8z" />
    <glyph glyph-name="backslash" unicode="\" horiz-adv-x="1475" 
d="M123 1253h293l366 -899l365 1051h205l-478 -1331h-188l-414 987h-149v192z" />
    <glyph glyph-name="Eth" horiz-adv-x="2312" 
d="M1151 1348l-707 -1217h1414zM1305 1618l884 -1487v-278h-2066v278l874 1487h308z" />
    <glyph glyph-name="Ntilde" unicode="&#xd1;" horiz-adv-x="2312" 
d="M1581 864l277 479h-1414l279 -479h858zM1305 -143h-308l-874 1486v279h2066v-279zM1438 618h-574l287 -491z" />
    <glyph glyph-name="Ograve" unicode="&#xd2;" horiz-adv-x="2312" 
d="M727 618l-283 -487h1414l-285 487h-846zM1305 1618l884 -1487v-278h-2066v278l874 1487h308zM1430 864l-279 484l-281 -484h560z" />
    <glyph glyph-name="Oacute" unicode="&#xd3;" horiz-adv-x="2312" 
d="M1151 127l707 1216h-1414zM1305 -143h-308l-874 1486v279h2066v-279z" />
    <glyph glyph-name="Ocircumflex" unicode="&#xd4;" horiz-adv-x="2458" 
d="M332 647q0 -71 42 -139t109.5 -110t139.5 -42q68 0 135 42t109 109.5t42 139.5q0 69 -42 136t-108.5 109t-135.5 42q-73 0 -140 -42t-109 -109.5t-42 -135.5zM1548 647q0 -71 42 -139t110 -110t139 -42q68 0 135.5 42t109.5 109.5t42 139.5q0 69 -42 136t-109 109
t-136 42q-72 0 -139.5 -42t-109.5 -109.5t-42 -135.5zM1430 911l-201 133l-201 -133q41 -56 65.5 -127t24.5 -137q0 -95 -41.5 -183.5t-113 -160.5t-161 -114t-179.5 -42q-92 0 -181.5 41.5t-162.5 114.5t-114.5 162.5t-41.5 181.5q0 90 42 180.5t113.5 161t160.5 112.5
t184 42q106 0 221 -64l385 248l385 -246q114 62 225 62q93 0 183 -42.5t159 -111.5t111.5 -159t42.5 -183q0 -95 -41.5 -183.5t-112.5 -160.5t-161.5 -114t-180.5 -42q-92 0 -181.5 41.5t-162.5 114.5t-114.5 162.5t-41.5 181.5q0 139 91 264z" />
    <glyph glyph-name="Otilde" unicode="&#xd5;" horiz-adv-x="2458" 
d="M332 795q0 -72 42 -139.5t109.5 -109.5t139.5 -42q68 0 135 42t109 109t42 140q0 69 -42 135.5t-108.5 108.5t-135.5 42q-73 0 -140 -42t-109 -109t-42 -135zM1548 795q0 -72 42 -139.5t110 -109.5t139 -42q68 0 135.5 42t109.5 109t42 140q0 69 -42 135.5t-109 108.5
t-136 42q-72 0 -139.5 -42t-109.5 -109t-42 -135zM1356 684h-254q-21 -76 -69 -147t-113 -125t-141.5 -85.5t-155.5 -31.5q-92 0 -181.5 41.5t-162.5 114.5t-114.5 162.5t-41.5 181.5q0 90 42 179.5t113.5 160.5t160.5 113t184 42q102 0 202 -52.5t174.5 -142t102.5 -190.5
h254q28 100 102.5 189.5t175.5 142.5t205 53q93 0 183 -42.5t159.5 -112t111.5 -158.5t42 -182q0 -95 -41.5 -183.5t-112.5 -160.5t-161.5 -114t-180.5 -42q-104 0 -205.5 53.5t-175 142.5t-102.5 193z" />
    <glyph glyph-name="multiply" horiz-adv-x="2458" 
d="M332 647q0 -71 42 -139t109.5 -110t139.5 -42q68 0 135 42t109 109.5t42 139.5q0 69 -42 136t-108.5 109t-135.5 42q-73 0 -140 -42t-109 -109.5t-42 -135.5zM1548 647q0 -71 42 -139t110 -110t139 -42q68 0 135.5 42t109.5 109.5t42 139.5q0 69 -42 136t-109 109
t-136 42q-72 0 -139.5 -42t-109.5 -109.5t-42 -135.5zM1448 934h-438q108 -139 108 -287q0 -152 -108 -291h438q-109 138 -109 291q0 78 29 151.5t80 135.5zM1839 147h-1216q-92 0 -181.5 41.5t-162.5 114.5t-114.5 162.5t-41.5 181.5q0 90 42 180.5t113.5 161t160.5 112.5
t184 42h1216q93 0 183 -42.5t159 -111.5t111.5 -159t42.5 -183q0 -95 -41.5 -183.5t-112.5 -160.5t-161.5 -114t-180.5 -42z" />
    <glyph glyph-name="Ugrave" unicode="&#xd9;" 
d="M1892 737q0 -164 -74 -322t-202 -285t-288 -202t-320 -75t-320.5 74.5t-287.5 202t-202 287.5t-75 320q0 162 74.5 321.5t202 287.5t286 202t322.5 74t322 -74t286 -202t202 -286t74 -323zM369 737q0 -156 93 -305t241.5 -241.5t304.5 -92.5t304.5 93t241.5 241.5
t93 304.5q0 117 -54 233t-146 207t-206.5 145t-232.5 54q-156 0 -305 -92.5t-241.5 -241.5t-92.5 -305z" />
    <glyph glyph-name="Uacute" unicode="&#xda;" 
d="M1892 737q0 -164 -74 -322t-202 -285t-288 -202t-320 -75t-320.5 74.5t-287.5 202t-202 287.5t-75 320q0 162 74.5 321.5t202 287.5t286 202t322.5 74t322 -74t286 -202t202 -286t74 -323zM1118 111q104 24 200.5 85t170 146.5t116 187.5t42.5 207q0 106 -42.5 208
t-115.5 188t-171 147.5t-200 83.5v-1253zM897 111v1253q-136 -29 -258.5 -125t-196 -229.5t-73.5 -272.5q0 -138 73.5 -271.5t196 -229.5t258.5 -125z" />
    <glyph glyph-name="Ucircumflex" unicode="&#xdb;" 
d="M1892 737q0 -164 -74 -322t-202 -285t-288 -202t-320 -75t-320.5 74.5t-287.5 202t-202 287.5t-75 320q0 162 74.5 321.5t202 287.5t286 202t322.5 74t322 -74t286 -202t202 -286t74 -323zM1632 858q-25 103 -86 197t-147.5 166t-187.5 113.5t-203 41.5t-202.5 -41
t-187.5 -114t-147.5 -166t-87.5 -197h1249zM1636 637h-1257q30 -140 125 -264t230.5 -199.5t273.5 -75.5q139 0 273.5 75.5t229.5 199.5t125 264z" />
    <glyph glyph-name="Yacute" 
d="M1892 737q0 -164 -74 -322t-202 -285t-288 -202t-320 -75t-320.5 74.5t-287.5 202t-202 287.5t-75 320q0 162 74.5 321.5t202 287.5t286 202t322.5 74t322 -74t286 -202t202 -286t74 -323zM1632 858q-25 103 -86 197t-147.5 166t-187.5 113.5t-203 41.5t-202.5 -41
t-187.5 -114t-147.5 -166t-87.5 -197h1249zM1118 637v-526q124 27 232.5 104.5t184.5 190t99 231.5h-516zM897 637h-516q23 -119 99 -231.5t184.5 -190t232.5 -104.5v526z" />
    <glyph glyph-name="Thorn" horiz-adv-x="2320" 
d="M897 111v1253q-136 -29 -258.5 -125t-196 -229.5t-73.5 -272.5q0 -138 73.5 -271.5t196 -229.5t258.5 -125zM1544 416q103 161 103 321q0 106 -42.5 208t-115.5 188t-171 147.5t-200 83.5v-512q136 -11 214 -51.5t128 -122.5q37 -58 84 -262zM1384 242q-16 55 -29 99
t-24 81q-10 42 -19.5 79t-26 63.5t-56 47t-111.5 29.5v-530q145 30 266 131zM1618 131q52 -144 77.5 -204t60 -106t88.5 -70.5t136 -24.5q39 0 84 13t81 43t53 81v-221q-38 -113 -256 -113q-118 0 -194.5 32.5t-136 112.5t-122.5 228q-22 47 -35 96q-102 -69 -216 -107
t-230 -38q-160 0 -320.5 74.5t-287.5 202t-202 287.5t-75 320q0 162 74.5 321.5t202 287.5t286 202t322.5 74t322 -74t286 -202t202 -286t74 -323q0 -163 -73 -320.5t-201 -285.5z" />
    <glyph glyph-name="agrave" unicode="&#xe0;" 
d="M123 2q0 53 46 99t101 46q36 0 69.5 -20.5t55 -55t21.5 -69.5t-21 -69.5t-54.5 -56t-70.5 -21.5q-55 0 -101 46t-46 101zM614 2q0 53 46 99t102 46q36 0 69.5 -21t54.5 -55t21 -69q0 -56 -44.5 -101.5t-100.5 -45.5t-102 46t-46 101zM1106 2q0 53 46 99t101 46
q36 0 69.5 -20.5t55 -55t21.5 -69.5t-21 -69.5t-54.5 -56t-70.5 -21.5q-55 0 -101 46t-46 101zM1597 2q0 53 46 99t102 46q36 0 69.5 -21t54.5 -55t21 -69q0 -56 -44.5 -101.5t-100.5 -45.5t-102 46t-46 101zM860 1477q0 53 46 99t102 46q35 0 69 -21.5t55 -56t21 -67.5
q0 -55 -45.5 -101.5t-99.5 -46.5t-101 47t-47 101zM1106 985q0 53 46 99t101 46q36 0 69.5 -20.5t55 -55t21.5 -69.5t-21 -69.5t-54.5 -56t-70.5 -21.5q-55 0 -101 46t-46 101zM614 985q0 53 46 99t102 46q36 0 69.5 -21t54.5 -55t21 -69q0 -56 -44.5 -101.5t-100.5 -45.5
t-102 46t-46 101zM1352 494q0 55 45 100t102 45q37 0 70.5 -21.5t54.5 -56t21 -67.5q0 -55 -45.5 -101.5t-100.5 -46.5t-101 46t-46 102zM860 494q0 53 46 99t102 46q35 0 69 -21.5t55 -56t21 -67.5q0 -55 -45.5 -101.5t-99.5 -46.5t-101 47t-47 101zM369 494q0 55 45 100
t102 45q37 0 70.5 -21.5t54.5 -56t21 -67.5q0 -55 -45.5 -101.5t-100.5 -46.5t-101 46t-46 102z" />
    <glyph glyph-name="aacute" unicode="&#xe1;" 
d="M561 737q0 -107 64.5 -211t168.5 -168.5t212 -64.5q106 0 209.5 64.5t168 169t64.5 210.5q0 80 -38 160.5t-99.5 142.5t-143 101t-161.5 39q-81 0 -162.5 -38.5t-144.5 -102.5t-100.5 -143t-37.5 -159zM1204 88h688v-235h-1769v235h684q-133 50 -245 151.5t-177.5 232
t-65.5 265.5q0 137 65.5 268.5t175.5 231t241 149.5h-678v236h1769v-236h-684q134 -50 244.5 -149.5t176 -231t65.5 -268.5q0 -102 -37.5 -203t-105.5 -188.5t-157 -154.5t-190 -103z" />
    <glyph glyph-name="acircumflex" unicode="&#xe2;" 
d="M1008 569l-482 -481h963zM1008 905l481 481h-963zM840 737l-482 482v-963zM1176 737l481 -481v963zM123 1622h1769v-1769h-1769v1769z" />
    <glyph glyph-name="atilde" unicode="&#xe3;" 
d="M1008 573l-529 -485h1057zM1892 1386l-704 -649l704 -649v-235h-1769v235l704 649l-704 649v236h1769v-236zM1008 901l528 485h-1057z" />
    <glyph glyph-name="aring" unicode="&#xe5;" horiz-adv-x="1583" 
d="M711 502l-133 92l-111 -254zM995 588l-121 -84l211 -146zM895 831h-221l-62 -151l183 -123l166 109zM858 920l-72 174l-75 -174h147zM975 920h485l-379 -271l222 -575l-515 368l-518 -368l226 579l-373 267h475l188 481zM1010 831l39 -104l155 104h-194zM565 831h-176
l139 -94z" />
    <glyph glyph-name="ccedilla" unicode="&#xe7;" 
d="M1376 811q72 0 140.5 43t111.5 111.5t43 140.5q0 73 -43 141.5t-111.5 111t-140.5 42.5q-73 0 -141 -43t-111 -111t-43 -141q0 -72 42.5 -140.5t111 -111.5t141.5 -43zM950 838q-90 134 -90 268q0 126 75 246t195 195t246 75t246 -75t195 -195t75 -246t-75 -246
t-195 -195t-246 -75q-134 0 -268 90l-827 -827l-158 157z" />
    <glyph glyph-name="egrave" unicode="&#xe8;" horiz-adv-x="2294" 
d="M1315 760l-168 293l-164 -289l164 -277zM1305 225h-308l-166 275l-374 -647h-314l529 907l-529 862h324l358 -598l172 299h308l174 -295l364 594h336l-541 -864l533 -905h-338l-363 636z" />
    <glyph glyph-name="eacute" unicode="&#xe9;" horiz-adv-x="1798" 
d="M895 494l526 892h-1044zM1024 268q53 -84 115.5 -126t146 -58t201.5 -16q72 0 110 2v-217q-97 -15 -196 -15q-135 0 -233.5 31t-165.5 86.5t-116 125t-116 187.5l-647 1118v236h1552v-236z" />
    <glyph glyph-name="ecircumflex" unicode="&#xea;" 
d="M1892 737q0 -164 -74 -322t-202 -285t-288 -202t-320 -75t-320.5 74.5t-287.5 202t-202 287.5t-75 320q0 162 74.5 321.5t202 287.5t286 202t322.5 74t322 -74t286 -202t202 -286t74 -323zM369 737q0 -156 93 -305t241.5 -241.5t304.5 -92.5t304.5 93t241.5 241.5
t93 304.5q0 117 -54 233t-146 207t-206.5 145t-232.5 54q-156 0 -305 -92.5t-241.5 -241.5t-92.5 -305zM1010 1059l-265 -455h531zM1081 1255l416 -700v-129h-973v129l410 700h147z" />
    <glyph glyph-name="edieresis" unicode="&#xeb;" 
d="M123 958v211h1769v-211h-1769zM786 737v-223q0 -56 32.5 -106.5t84 -82.5t105.5 -32q53 0 104.5 32t84 82.5t32.5 106.5v223h663v-223h-442q0 -80 -37 -160t-101 -144t-143.5 -101t-160.5 -37t-159.5 36.5t-144.5 102.5t-102.5 144.5t-36.5 158.5h-442v223h663z" />
    <glyph glyph-name="registered" unicode="&#xae;" horiz-adv-x="2234" 
d="M674 1251h-551v224h330q0 81 37 160.5t101 143.5t144 101t160 37q81 0 162 -37.5t143 -99.5t99.5 -143t37.5 -162h326v-224h-547v224q0 53 -32 104.5t-82.5 84t-106.5 32.5t-106.5 -32.5t-82.5 -84t-32 -104.5v-224zM1155 123l-135 -270h-254l-643 1290h266l506 -1030
l502 1030h266l-408 -819q100 -13 164 -53t103 -113q27 -73 66.5 -175.5t77 -155t91.5 -77t137 -24.5q39 0 83.5 13t81.5 44t52 80v-221q-37 -113 -256 -113q-89 0 -153 18.5t-114.5 60.5t-93 110.5t-91.5 183.5q-11 42 -20.5 81t-30.5 67.5t-66.5 48.5t-130.5 24z" />
    <glyph glyph-name="igrave" unicode="&#xec;" horiz-adv-x="2238" 
d="M1632 696q0 -53 47 -100t99 -47q53 0 100 46t47 101q0 37 -21 70t-55.5 53.5t-70.5 20.5q-54 0 -100 -45t-46 -99zM950 696q0 -54 46.5 -100.5t99.5 -46.5q54 0 99.5 46.5t45.5 100.5q0 36 -21 69.5t-55.5 54t-68.5 20.5q-36 0 -70.5 -20.5t-55 -54t-20.5 -69.5zM268 696
q0 -53 47 -100t101 -47t99.5 46.5t45.5 100.5q0 36 -21 69.5t-55.5 54t-68.5 20.5q-56 0 -102 -45t-46 -99zM123 1069v148h1993v-148h-1993zM887 500q-84 87 -84 196q0 71 43 139t110.5 110t139.5 42t139.5 -42t110.5 -110t43 -139q0 -107 -86 -196q16 -40 53.5 -68.5
t79.5 -28.5q39 0 78 29t55 68q-84 84 -84 196q0 71 43 139t110.5 110t139.5 42t139.5 -42.5t109 -110.5t41.5 -138q0 -53 -22 -103.5t-64 -92.5q18 -40 56.5 -68.5t77.5 -28.5q2 -19 4 -49t2 -71q0 -25 -6 -25q-73 0 -143 45t-113 115q-40 -15 -82 -15q-47 0 -86 15
q-42 -69 -112.5 -114.5t-143.5 -45.5q-74 0 -144.5 45.5t-111.5 114.5q-40 -15 -84 -15q-47 0 -86 15q-40 -70 -111.5 -115t-144.5 -45q-50 0 -99 21.5t-88.5 56.5t-66.5 82q-37 -15 -84 -15q-76 0 -144 42t-108.5 110t-40.5 141q0 71 43 139t110 110t140 42q72 0 139.5 -42
t110.5 -110t43 -139q0 -107 -91 -200q18 -39 56 -66t80 -27q41 0 78.5 28t54.5 69z" />
    <glyph glyph-name="iacute" unicode="&#xed;" horiz-adv-x="1374" 
d="M563 1233q0 45 38 84t87 39q48 0 85.5 -38.5t37.5 -84.5q0 -47 -38 -86t-85 -39q-48 0 -86.5 39.5t-38.5 85.5zM305 1612l86 170l670 -340l-86 -168zM975 887q122 -80 199 -207t77 -262q0 -139 -82 -270.5t-212.5 -213t-268.5 -81.5q-137 0 -268.5 81.5t-214 213
t-82.5 270.5q0 89 35.5 177t99 163.5t143.5 128.5q-79 54 -143 130.5t-99.5 163.5t-35.5 175h188q0 -87 51 -174.5t137.5 -144t188.5 -56.5t188.5 56.5t137.5 144t51 174.5h186q0 -134 -77 -260.5t-199 -208.5zM311 418q0 -91 55 -179.5t143.5 -143t178.5 -54.5
q67 0 135.5 32t122.5 85t86.5 122.5t32.5 137.5q0 89 -38 160.5t-95.5 118.5t-123.5 72.5t-120 25.5q-99 0 -187 -57t-139 -145t-51 -175z" />
    <glyph glyph-name="icircumflex" unicode="&#xee;" horiz-adv-x="1575" 
d="M672 41q-58 -88 -123.5 -138t-130.5 -50q-72 0 -140.5 43t-111.5 110.5t-43 140.5q0 72 43 140.5t111.5 111.5t140.5 43q83 0 196 -96q29 107 60 293q9 50 15 136t17 204.5t26 187t40 90.5q57 54 105 72l-95 68l-483 -279v209l483 295l559 -383v-209q-41 37 -134 79
t-173 42q-54 0 -90 -25q-29 -21 -43.5 -78t-19.5 -124.5t-8.5 -171.5t-10.5 -162q-19 -177 -102 -379q74 -65 124 -98.5t99 -42.5q70 -17 162 -17q59 0 98 8q12 3 37.5 8.5t42.5 11.5t29 17l100 -168q-28 -21 -90 -43.5t-119 -33.5q-45 -11 -147 -11q-103 0 -148 11
q-58 10 -125.5 59.5t-150.5 128.5zM545 164q-79 69 -127 69q-32 0 -59 -27t-27 -59t27 -59t59 -27q72 0 127 103z" />
    <glyph glyph-name="idieresis" unicode="&#xef;" horiz-adv-x="2062" 
d="M705 1208q-17 -87 -28.5 -171t-36.5 -299.5t-46 -352t-49 -248.5q-40 -158 -153.5 -221t-268.5 -63v208q75 0 119 12t77.5 56t53.5 137q17 74 28 168.5t32.5 292t43.5 338t55 272.5q74 285 424 285v-209q-76 0 -120.5 -12t-78 -56t-52.5 -137zM1196 1208
q-19 -97 -36 -234.5t-35.5 -294.5t-39.5 -293.5t-49 -248.5q-27 -110 -91 -172.5t-148.5 -87t-182.5 -24.5v208q75 0 119 12t77.5 56t53.5 137q17 74 33 215.5t33 290t38 285.5t56 280q41 160 154 222.5t270 62.5v-209q-76 0 -120.5 -12t-78 -55.5t-53.5 -137.5zM1688 1208
q-17 -87 -28.5 -171t-36.5 -299.5t-46 -352t-49 -248.5q-40 -158 -153.5 -221t-268.5 -63v208q75 0 119 12t77.5 56t53.5 137q17 74 28 168.5t30.5 275.5t43 332.5t58.5 294.5q72 285 423 285v-209q-76 0 -121 -12t-77.5 -56t-52.5 -137z" />
    <glyph glyph-name="eth" horiz-adv-x="2109" 
d="M860 -147q50 -69 105.5 -106t132.5 -46q36 -4 59 -4q154 0 186 102v-221q-13 -40 -50.5 -61t-85 -27t-101.5 -6h-47q-79 0 -160.5 46t-159 131.5t-150 201t-138.5 256.5q-23 49 -43 79t-51.5 53.5t-90 41.5t-143.5 26v211q123 -1 207 -19t139.5 -56t95.5 -103
q62 -96 113 -192v493h-256v211h256v754h1290v-213h-1046v-541h690v-211h-690v-590h1065v-210h-1127z" />
    <glyph glyph-name="ograve" unicode="&#xf2;" horiz-adv-x="2449" 
d="M766 -147l-643 1769h266l504 -1509l504 1509h913v-217h-723l-198 -541h565v-211h-641l-49 -135v-455h1063v-210h-1561z" />
    <glyph glyph-name="ntilde" unicode="&#xf1;" horiz-adv-x="1632" 
d="M745 1004q-96 21 -164.5 100.5t-68.5 198.5q7 65 51.5 127.5t111 102.5t132.5 40q65 0 122.5 -39.5t90.5 -101t33 -129.5q0 -38 -13 -99h45v418h218v-418h206v-192h-206v-889q0 -65 38 -82.5t93 -17.5h75v-170h-161q-104 0 -161.5 31t-79.5 86.5t-22 140.5v901h-122
q-34 -73 -51 -127t-17 -109q0 -44 17 -95.5t53 -141t55.5 -157t19.5 -130.5q0 -131 -102 -213q-95 -76 -201 -76q-108 0 -225 82q-12 10 -33 10q-33 0 -65.5 -36.5t-51.5 -85.5t-18 -80h-221q28 104 83 204.5t128 164t153 63.5q15 0 39 -4q55 -11 108.5 -41.5t74.5 -30.5
q32 0 73 37q41 34 41 88q0 44 -51.5 148t-77.5 170.5t-26 162.5q4 48 22 89.5t55 99.5zM862 1202q11 32 19 101q0 41 -19.5 69.5t-54.5 28.5q-33 0 -52.5 -29.5t-21.5 -68.5q0 -44 24 -77.5t64 -33.5q18 0 41 10z" />
    <glyph glyph-name="oacute" unicode="&#xf3;" horiz-adv-x="3109" 
d="M1364 618v238h381v-238h-381zM358 1386v-1298h2392v1298h-2392zM2986 -147h-2863v1769h2863v-1769z" />
    <glyph glyph-name="ocircumflex" unicode="&#xf4;" horiz-adv-x="2060" 
d="M924 -147v1769h211v-1769h-211zM788 516v-663h-223v442q-80 0 -158.5 36.5t-144.5 102.5t-102.5 144.5t-36.5 158.5q0 81 37 160.5t102 144.5t144 101.5t159 36.5v442h223v-664h-223q-53 0 -104.5 -32t-84 -82.5t-32.5 -106.5q0 -54 32.5 -105t83.5 -83.5t105 -32.5h223z
M1270 516h225q56 0 106.5 32.5t82.5 84t32 104.5q0 55 -32 106t-83 83t-106 32h-225v664h225v-442q81 0 161 -37t143 -100t100.5 -144t37.5 -162q0 -80 -37 -160t-101 -144t-143.5 -101t-160.5 -37v-442h-225v663z" />
    <glyph glyph-name="otilde" unicode="&#xf5;" horiz-adv-x="2163" 
d="M123 295q0 81 37 160.5t101 143.5t144 101t160 37q81 0 162 -37.5t144 -100.5t100 -143t37 -161q0 -80 -36.5 -159t-101.5 -144t-144.5 -102t-160.5 -37q-115 0 -216.5 63.5t-163.5 166.5t-62 212zM344 295q0 -56 32.5 -106.5t84 -82.5t104.5 -32q55 0 106 32t83 83
t32 106t-32 106t-83 83t-106 32q-53 0 -104.5 -32t-84 -82.5t-32.5 -106.5zM639 1343q0 81 37 161t101 144t144 101t160 37q81 0 162.5 -37.5t143.5 -99.5t99.5 -143.5t37.5 -162.5q0 -80 -37 -160t-101 -144t-144 -101t-161 -37q-115 0 -216.5 63.5t-163.5 166.5t-62 212z
M860 1343q0 -54 32.5 -105t83.5 -83.5t105 -32.5q55 0 106 32.5t83.5 83.5t32.5 105q0 55 -32.5 106t-83.5 83.5t-106 32.5q-54 0 -105 -32.5t-83.5 -83.5t-32.5 -106zM1155 295q0 81 37 160.5t101 143.5t144 101t160 37q81 0 162.5 -37.5t143.5 -99.5t99.5 -143t37.5 -162
q0 -80 -37 -160t-101 -144t-144 -101t-161 -37q-115 0 -216.5 63.5t-163.5 166.5t-62 212zM1376 295q0 -56 32.5 -106.5t84 -82.5t104.5 -32q54 0 105.5 32t84 82.5t32.5 106.5t-32.5 106.5t-84 82.5t-105.5 32q-53 0 -104.5 -32t-84 -82.5t-32.5 -106.5z" />
    <glyph glyph-name="divide" unicode="&#xf7;" horiz-adv-x="1819" 
d="M123 -147l639 1769h295l639 -1769h-256l-531 1572l-530 -1572h-256zM762 494q0 53 46 99t101 46q37 0 70.5 -21.5t54.5 -56t21 -67.5q0 -55 -45.5 -101.5t-100.5 -46.5q-53 0 -100 47t-47 101z" />
    <glyph glyph-name="ugrave" unicode="&#xf9;" horiz-adv-x="1819" 
d="M123 1622h256l530 -1573l531 1573h256l-639 -1769h-295zM762 981q0 55 46 101t101 46q37 0 70.5 -21.5t54.5 -56t21 -69.5q0 -53 -45 -99t-101 -46q-54 0 -100.5 46.5t-46.5 98.5z" />
    <glyph glyph-name="uacute" unicode="&#xfa;" 
d="M1892 737q0 -164 -74 -322t-202 -285t-288 -202t-320 -75t-320.5 74.5t-287.5 202t-202 287.5t-75 320q0 162 74.5 321.5t202 287.5t286 202t322.5 74t322 -74t286 -202t202 -286t74 -323zM369 737q0 -156 93 -305t241.5 -241.5t304.5 -92.5t304.5 93t241.5 241.5
t93 304.5q0 117 -54 233t-146 207t-206.5 145t-232.5 54q-156 0 -305 -92.5t-241.5 -241.5t-92.5 -305zM1243 922q0 44 38 81t81 37t79 -37t36 -81t-35.5 -79.5t-79.5 -35.5t-81.5 35.5t-37.5 79.5zM518 922q0 44 38 81t81 37t79 -37t36 -81t-35.5 -79.5t-79.5 -35.5
t-81.5 35.5t-37.5 79.5zM889 281q0 41 37.5 77.5t81.5 36.5q43 0 78.5 -36.5t35.5 -77.5q0 -45 -35 -82t-79 -37q-28 0 -56.5 17t-45.5 45.5t-17 56.5zM973 821q-57 40 -110.5 119t-53.5 160q0 43 16 76q26 59 83 101t134 42q72 0 154 -39l-68 -141q-40 32 -77 32
q-29 0 -46.5 -17t-37.5 -48q-11 -12 -11 -33q0 -28 25.5 -59t60.5 -53q31 -23 69.5 -68t65.5 -103t27 -112q0 -39 -14 -74q-26 -59 -83 -100t-136 -41t-156 39l70 141q44 -33 80 -33q27 0 44.5 17.5t37.5 46.5q10 12 10 33q0 28 -24 59t-60 55z" />
    <glyph glyph-name="ucircumflex" unicode="&#xfb;" 
d="M754 852l-631 766h311l572 -692l569 692h313l-631 -766h631v-236h-626l630 -763h-311l-573 696l-574 -696h-311l629 763h-629v236h631z" />
    <glyph glyph-name="yacute" horiz-adv-x="2109" 
d="M639 664q-73 0 -140.5 -42.5t-110.5 -111t-44 -141.5q1 -73 43.5 -140.5t110.5 -110.5t141 -44q73 1 141.5 44t111 110.5t42.5 140.5t-43 141t-111 111t-141 43zM1804 1376l183 -182l-158 -158l-182 183l-88 -89l182 -182l-156 -153l-182 180l-90 -88l184 -185l-160 -157
l-182 182l-90 -90q88 -131 88 -268q0 -125 -74 -245.5t-194 -195.5t-248 -75q-126 0 -245 75t-194 194t-75 245q0 128 75 248t195.5 194t245.5 74q137 0 268 -88l90 90l-182 182l158 160l182 -183l90 89l-180 182l154 155l182 -182l88 88l-182 183l157 157l183 -182l88 88
l157 -158z" />
    <glyph glyph-name="thorn" horiz-adv-x="1278" 
d="M639 1401q-73 0 -141 -43t-111 -111t-43 -141q0 -72 42.5 -140.5t111 -111.5t141.5 -43t141.5 43t111 111.5t42.5 140.5q0 73 -43 141t-111 111t-141 43zM492 1108q0 55 45 100t102 45q36 0 69.5 -21t54.5 -55t21 -69q0 -56 -44.5 -101.5t-100.5 -45.5q-36 0 -70 21.5
t-55.5 55.5t-21.5 70zM750 195h270v-222h-270v-120h-222v120h-270v222h270v112h-270v221h270v76q-79 22 -152.5 71t-131 119t-89.5 151t-32 161q0 126 75 246t195 195t246 75t246 -75t195 -195t75 -246q0 -80 -32 -161t-89.5 -151t-130 -119t-153.5 -71v-76h270v-221h-270
v-112z" />
    <glyph glyph-name="ydieresis" unicode="&#xff;" horiz-adv-x="2007" 
d="M344 369q0 -72 42.5 -140.5t111 -111.5t141.5 -43t141.5 43t111 111.5t42.5 140.5q0 73 -43 141t-111 111t-141 43q-92 0 -159.5 -50.5t-101.5 -119.5t-34 -125zM735 872q96 -24 180.5 -84t145 -146t82.5 -179l346 344l-305 106l-107 306zM999 20q-73 -76 -167.5 -121.5
t-192.5 -45.5q-126 0 -246 75t-195 195t-75 246q0 94 44.5 187t119.5 171l882 891l183 -537l532 -176z" />
    <glyph glyph-name="u0080" horiz-adv-x="2013" 
d="M344 848q0 -56 32.5 -106.5t84 -82.5t104.5 -32q55 0 106 32t83 83t32 106q0 53 -32 104.5t-82.5 84t-106.5 32.5q-54 0 -105 -32.5t-83.5 -83.5t-32.5 -105zM455 -74h-332v170h332v86h-332v176h332v62q-68 21 -128 63.5t-106.5 102t-72 126t-25.5 136.5
q0 111 69.5 217.5t176.5 167.5q-69 41 -125.5 102.5t-88.5 136.5t-32 150h221q0 -56 32.5 -106.5t84 -82.5t104.5 -32q55 0 106 32t83 83t32 106h222q0 -110 -69.5 -217t-176.5 -168q72 -43 127.5 -104.5t87 -135.5t31.5 -149q0 -89 -45 -177t-122 -154.5t-165 -94.5v-64
h299q0 67 29.5 130t83 115.5t115.5 81t126 28.5q88 0 170 -51t133 -133t51 -171h207v-176h-383v176q0 43 -26.5 85t-67 68t-84.5 26q-43 0 -84 -26t-66.5 -68t-25.5 -85v-176h-477v-86h1214v-170h-1214v-73h-221v73z" />
    <glyph glyph-name="u0081" horiz-adv-x="2013" 
d="M344 848q0 -56 32.5 -106.5t84 -82.5t104.5 -32q55 0 106 32t83 83t32 106q0 53 -32 104.5t-82.5 84t-106.5 32.5q-54 0 -105 -32.5t-83.5 -83.5t-32.5 -105zM455 -74h-332v176h332v86h-332v170h332v62q-68 21 -128 63.5t-106.5 102t-72 126t-25.5 136.5
q0 111 69.5 217.5t176.5 167.5q-69 41 -125.5 102.5t-88.5 136.5t-32 150h221q0 -56 32.5 -106.5t84 -82.5t104.5 -32q55 0 106 32t83 83t32 106h222q0 -110 -69.5 -217t-176.5 -168q72 -43 127.5 -104.5t87 -135.5t31.5 -149q0 -89 -45 -177t-122 -154.5t-165 -94.5v-64
h1214v-170h-1214v-86h477v-176q0 -66 55 -121t121 -55q43 0 84 25t67.5 67t26.5 84v176h383v-176h-207q0 -64 -28.5 -126t-80.5 -115t-115.5 -83t-129.5 -30q-84 0 -167.5 51.5t-135 134.5t-51.5 168h-299v-73h-221v73z" />
    <glyph glyph-name="quotesinglbase" unicode="&#x201a;" 
d="M950 831h115l143 152l84 -84l-98 -100q46 -18 98 -46.5t119 -76.5t133 -101q56 45 113 68q-27 134 -67 193t-99 59q-26 0 -70 -14q60 72 60 131q0 39 -28.5 61.5t-80.5 22.5q-44 0 -94 -15q-92 1 -133.5 32.5t-60.5 74.5t-29 43q-13 0 -47 -41q-35 41 -47 41
q-10 0 -23.5 -30t-29 -53t-57.5 -44.5t-114 -22.5q-57 17 -96 17q-51 0 -78.5 -23.5t-27.5 -62.5q0 -60 59 -131q-44 14 -70 14q-58 0 -97 -57t-69 -195q63 -27 111 -68q112 89 199.5 144.5t152.5 79.5l-98 100l84 84zM561 471q24 -35 47.5 -88t30.5 -64h737q2 3 28 61
t50 95q-120 91 -223 139t-213 48q-203 0 -457 -191zM1780 676q52 12 112 12v-147q-119 -56 -199 -128.5t-117.5 -152t-37.5 -162.5h-1061q0 83 -38 163t-118 153t-198 127v147q60 0 113 -12q20 110 46 177.5t62 100.5t84 33q11 0 39 -4q-47 50 -47 111q0 56 42.5 95.5
t123.5 39.5q37 0 57 -4q40 -6 74 -6q88 0 121 31.5t51 79.5t37 48q25 0 90 -51q59 51 82 51q16 0 31 -47t48.5 -79.5t120.5 -32.5q30 0 74 6q21 4 55 4q81 0 123.5 -39t42.5 -96q0 -66 -45 -111q30 4 39 4q74 0 118.5 -74.5t74.5 -236.5z" />
    <glyph glyph-name="florin" unicode="&#x192;" horiz-adv-x="2679" 
d="M639 664q-73 0 -141 -43t-111 -111t-43 -141q0 -72 42.5 -140.5t111 -111.5t141.5 -43t141.5 43t111 111.5t42.5 140.5q0 73 -43 141t-111 111t-141 43zM1675 690q0 54 46 100t102 46q35 0 69 -21.5t55 -56t21 -68.5q0 -56 -44.5 -101.5t-100.5 -45.5t-102 46t-46 101z
M1184 690q0 56 45 101t102 45q37 0 70.5 -21.5t54.5 -56t21 -68.5q0 -35 -21 -69.5t-54.5 -56t-70.5 -21.5q-36 0 -70 21.5t-55.5 55.5t-21.5 70zM2241 256h-1100q-23 -80 -72.5 -153t-118.5 -129.5t-149.5 -88.5t-161.5 -32q-126 0 -246 75t-195 195t-75 246t75 246
t195 195t246 75q81 0 162 -32.5t149.5 -88.5t118.5 -130t72 -155h1104l-201 332h246l266 -442l-266 -443h-246z" />
    <glyph glyph-name="quotedblbase" unicode="&#x201e;" 
d="M563 389l287 348l-285 344q-135 -161 -135 -346q0 -90 35.5 -180.5t97.5 -165.5zM748 231q125 -71 258 -71q136 0 260 76l-258 313zM610 1405q189 127 396 127q203 0 395 -127l174 213h313l-303 -369q100 -109 158.5 -243t58.5 -271q0 -136 -58.5 -269.5t-156.5 -242.5
l305 -370h-311l-178 213q-195 -127 -397 -127q-100 0 -201.5 32.5t-194.5 91.5l-176 -210h-311l303 368q-102 114 -159.5 248t-57.5 266q0 135 58.5 269t160.5 245l-305 369h311zM1446 1079l-283 -342l285 -344q62 79 97.5 165.5t35.5 176.5q0 179 -135 344zM1262 1237
q-132 74 -256 74q-129 0 -256 -74l256 -311z" />
    <glyph glyph-name="ellipsis" unicode="&#x2026;" horiz-adv-x="1634" 
d="M825 -147h-24q-171 0 -301 51.5t-213 140.5t-123.5 202.5t-40.5 239.5v1135h237v-764q172 -6 264.5 -46t149.5 -134q23 -35 41 -93.5t33.5 -129.5t35.5 -158t38 -139q8 -19 14 -35.5t14 -40.5q90 21 163.5 75.5t117 151.5t43.5 240v1073h237v-1104q0 -111 -30 -215
t-88.5 -186.5t-148.5 -144t-212 -93.5q45 -80 104 -116.5t158 -36.5q39 0 83.5 13t81.5 44t52 80v-221q-37 -113 -256 -113q-81 0 -143 16.5t-110 52t-88.5 94.5t-88.5 161zM748 66q-6 18 -31 107t-45 161t-25 88q-11 43 -22 85t-33 70t-78 47.5t-154 22.5v-94
q0 -240 110.5 -355t277.5 -132z" />
    <glyph glyph-name="dagger" unicode="&#x2020;" horiz-adv-x="1352" 
d="M573 1313v309h205v-309h266v-217h-266v-250h451v-217h-451v-776h-205v776h-450v217h450v250h-266v217h266z" />
    <glyph glyph-name="daggerdbl" unicode="&#x2021;" horiz-adv-x="889" 
d="M551 629v-867q0 -78 -21.5 -131t-65.5 -86t-111 -48t-158 -15q-48 0 -72 2v194q70 -4 92 -4q67 0 93 30t26 120v805h-211v215h211v499q0 102 39 164t117.5 89.5t203.5 27.5q47 0 72 -2v-195q-58 5 -92 5q-69 0 -96 -30t-27 -120v-438h215v-215h-215z" />
    <glyph glyph-name="circumflex" unicode="&#x2c6;" horiz-adv-x="3109" 
d="M358 88h1006v-235h-1241v1769h1241v-236h-1006v-1298zM2986 -147h-1241v235h1005v1298h-1005v236h1241v-1769z" />
    <glyph glyph-name="perthousand" unicode="&#x2030;" horiz-adv-x="2148" 
d="M344 848q0 -56 32.5 -106.5t84 -82.5t104.5 -32q55 0 106 32t83 83t32 106q0 53 -32 104.5t-82.5 84t-106.5 32.5q-54 0 -105 -32.5t-83.5 -83.5t-32.5 -105zM676 61v-208h-221v208h-332v222h332v137q-68 21 -128 63.5t-106.5 102t-72 126t-25.5 136.5q0 111 69.5 217.5
t176.5 167.5q-69 41 -125.5 102.5t-88.5 136.5t-32 150h221q0 -56 32.5 -106.5t84 -82.5t104.5 -32q55 0 106 32t83 83t32 106h222q0 -110 -69.5 -217t-176.5 -168q72 -43 127.5 -104.5t87 -135.5t31.5 -149q0 -89 -45 -177t-122 -154.5t-165 -94.5v-139h334l-97 260h252
l256 -822h4l365 1049h235l-489 -1286h-231l-213 577h-416z" />
    <glyph glyph-name="Scaron" horiz-adv-x="1225" 
d="M342 1401v-541h541v541h-541zM502 639h-381v981v2l4 -2l977 2v-983h-379v-258h270v-221h-270v-307h-221v307h-271v221h271v258z" />
    <glyph glyph-name="guilsinglleft" unicode="&#x2039;" horiz-adv-x="1225" 
d="M467 1573q0 -54 47 -101t100 -47q55 0 100.5 46.5t45.5 101.5q0 36 -21 70t-55 54.5t-70 20.5q-54 0 -100.5 -45.5t-46.5 -99.5zM901 1620l201 2v-983h-379v-258h270v-221h-270v-307h-221v307h-271v221h271v258h-381v981v2l4 -2h203q18 97 103.5 171.5t182.5 74.5
q96 0 182.5 -75t104.5 -171zM844 1401q-44 -53 -106.5 -87t-123.5 -34q-67 0 -127 33t-104 88h-41v-541h541v541h-39z" />
    <glyph glyph-name="OE" unicode="&#x152;" horiz-adv-x="1808" 
d="M1686 63v-210h-1307v800h-256v211h256v754h1290v-213h-1046v-541h690v-211h-690v-590h1063z" />
    <glyph glyph-name="u008D" horiz-adv-x="1425" 
d="M602 442v283h-196l-283 897h221l209 -676h49v418h221v-418h49l209 676h222l-283 -897h-197v-283h332v-221h-332v-368h-221v368h-332v221h332z" />
    <glyph glyph-name="u008E" horiz-adv-x="1573" 
d="M786 236q145 183 441 241v922h-883v-922q154 -26 263 -89t179 -152zM725 -143q-52 132 -91.5 205t-97.5 123t-156 77.5t-257 32.5v1325v2l4 -2l1323 2v-1327q-184 -4 -298.5 -50.5t-168 -112.5t-82.5 -148q60 -149 131.5 -226t184.5 -77q67 0 138.5 33.5t94.5 103.5v-221
q-23 -69 -102.5 -91t-169.5 -22q-118 0 -194.5 33t-136 113t-122.5 227z" />
    <glyph glyph-name="u008F" horiz-adv-x="1352" 
d="M573 1102v520h205v-520h451v-217h-451v-1032h-205v1032h-450v217h450z" />
    <glyph glyph-name="guillemotleft" unicode="&#xab;" horiz-adv-x="1352" 
d="M846 1362q0 53 46 99t101 46q36 0 69.5 -20.5t55 -55t21.5 -69.5q0 -55 -45.5 -101.5t-100.5 -46.5q-53 0 -100 47t-47 101zM207 1362q0 53 46 99t101 46q36 0 69.5 -20.5t55 -55t21.5 -69.5q0 -55 -45.5 -101.5t-100.5 -46.5q-53 0 -100 47t-47 101zM846 625q0 53 46 99
t101 46q37 0 70.5 -21.5t54.5 -56t21 -67.5q0 -55 -45.5 -101.5t-100.5 -46.5q-53 0 -100 47t-47 101zM207 625q0 53 46 99t101 46q37 0 70.5 -21.5t54.5 -56t21 -67.5q0 -55 -45.5 -101.5t-100.5 -46.5q-53 0 -100 47t-47 101zM573 1102v520h205v-520h451v-217h-451v-1032
h-205v1032h-450v217h450z" />
    <glyph glyph-name="logicalnot" unicode="&#xac;" 
d="M786 406h-663v223h442q0 81 37 160.5t101 143.5t144 101t161 37t162 -37.5t143 -99.5t99.5 -143t37.5 -162h442v-223h-663v223q0 54 -32.5 105t-83.5 83.5t-105 32.5q-55 0 -106 -32.5t-83.5 -83.5t-32.5 -105v-223z" />
    <glyph glyph-name="softhyphen" horiz-adv-x="1786" 
d="M674 1251h-551v224h330q0 81 37 160.5t101 143.5t144 101t160 37q81 0 162 -37.5t143 -99.5t99.5 -143t37.5 -162h326v-224h-547v224q0 53 -32 104.5t-82.5 84t-106.5 32.5t-106.5 -32.5t-82.5 -84t-32 -104.5v-224zM895 113l502 1030h266l-643 -1290h-254l-643 1290h266
z" />
    <glyph glyph-name="macron" unicode="&#xaf;" 
d="M1008 1180q-120 0 -222.5 -59t-161.5 -161.5t-59 -222.5q0 -119 59 -221t161.5 -161.5t222.5 -59.5q119 0 221.5 59t161.5 161.5t59 221.5q0 120 -59.5 222.5t-161.5 161.5t-221 59zM356 627h-233v221h229q22 131 89.5 247.5t183.5 197t272 100.5v229h221v-229
q118 -14 214 -65.5t164 -126.5t109.5 -164t57.5 -189h229v-221h-231q-21 -131 -92 -245.5t-186.5 -192.5t-264.5 -103v-233h-221v229q-143 20 -258.5 103t-187 200.5t-95.5 241.5z" />
    <glyph glyph-name="quotedbl" unicode="&#x22;" 
d="M897 1196q0 37 -23 80t-62 73.5t-79 36.5q-14 3 -45 3q-73 0 -141 -27.5t-134 -71.5t-159 -116t-131 -97v221q68 85 165 156t218 114.5t254 43.5q67 -3 132 -40t114 -97q51 61 115.5 97.5t133.5 39.5q133 0 254 -43.5t218 -114.5t165 -156v-221q-45 31 -137.5 102.5
t-155 113t-131.5 69t-141 27.5q-31 0 -45 -3q-62 -8 -108 -66.5t-56 -123.5v-758h273v-213h-273v-372h-221v372h-262v213h262v758z" />
    <glyph glyph-name="dollar" unicode="$" horiz-adv-x="1966" 
d="M705 426l-132 94l-106 -250zM995 516l-121 -86l218 -145zM1010 752l39 -101l155 101h-194zM713 846h145l-72 174zM563 752h-170l135 -88zM1253 698l-174 -123l109 -278l90 401h-25zM674 752l-64 -146l185 -123l168 111l-66 158h-223zM600 846l186 481l187 -481h350
l113 493q27 114 54 170.5t84 84t167 28.5h102l-28 -139q-88 0 -122.5 -7t-54.5 -40t-36 -109l-117 -483h207l-31 -146h-215l-197 -886q-18 -82 -36.5 -132.5t-49.5 -83.5t-83 -48.5t-136 -16.5l-104 -2l30 139q87 0 121 7t54 40t36 109l64 287l-359 256l-516 -367l224 578
l-371 268h477z" />
    <glyph glyph-name="quotesingle" unicode="'" horiz-adv-x="2497" 
d="M1430 63v-210h-1303v1765h1286v-213h-1046v-541h690v-211h-690v-590h1063zM1749 1202q0 -137 66 -198.5t143 -61.5q103 0 156 81t53 216q0 289 -211 289q-207 0 -207 -326zM1624 545v1077h123v-109h2q41 60 89.5 97t139.5 37q99 0 172.5 -50.5t111.5 -139t38 -195.5
q0 -106 -32 -203t-108 -162.5t-198 -65.5q-70 0 -122.5 28.5t-82.5 72.5h-2v-387h-131zM1833 727h541v-176h-541v176z" />
    <glyph glyph-name="greater" unicode="&#x3e;" horiz-adv-x="2171" 
d="M311 334q0 -72 43 -139.5t110.5 -110.5t139.5 -43t139.5 43t110.5 110.5t43 139.5t-43 139.5t-110.5 110.5t-139.5 43t-139.5 -43t-110.5 -110.5t-43 -139.5zM1274 334q0 -72 42 -139.5t110 -110.5t139 -43q72 0 139.5 43t110.5 110.5t43 139.5t-43 139.5t-110.5 110.5
t-139.5 43q-71 0 -139 -43t-110 -110.5t-42 -139.5zM795 1143q0 -72 42 -139.5t110 -110.5t138 -43q72 0 139.5 43t110.5 110.5t43 139.5t-43 139.5t-110.5 110.5t-139.5 43q-70 0 -138 -43t-110 -110.5t-42 -139.5zM1341 752q110 63 224 63q119 0 230.5 -69.5t182 -182.5
t70.5 -229q0 -115 -70.5 -228t-183.5 -183t-229 -70q-113 0 -221.5 65t-179 172t-79.5 221q-7 -115 -78 -221.5t-181 -171.5t-222 -65q-115 0 -228 70t-183 183t-70 228q0 116 70 229t181.5 182.5t229.5 69.5t227 -65q-99 70 -163 177t-64 216q0 114 70 226.5t183 182.5
t228 70t228 -70t182.5 -181t69.5 -228q0 -110 -61.5 -215.5t-162.5 -175.5zM1311 727q-113 -65 -226 -65q-112 0 -213 59q91 -65 149 -162.5t64 -202.5q6 73 36 140.5t79.5 127.5t110.5 103z" />
    <glyph glyph-name="at" unicode="@" horiz-adv-x="2152" 
d="M438 25h246v-172h-561v561h196v-230l187 187q-91 152 -146 314.5t-90 356.5q-14 91 -14 148q0 199 104 315.5t275 116.5q143 0 247.5 -77t145.5 -179q43 103 146.5 179.5t246.5 76.5q145 0 240 -84l86 84h283l-258 -258q26 -74 26 -172q0 -74 -14 -150
q-31 -181 -83.5 -340.5t-136.5 -306.5t-217 -285.5t-319 -256.5q-251 160 -405 354zM1516 1393q-37 22 -95 22q-84 0 -140.5 -26.5t-91.5 -66t-85 -117.5t-76 -113q-32 44 -78 115.5t-83 113.5t-92 68t-140 26q-176 0 -176 -213q0 -73 18 -160q21 -98 60.5 -220.5
t109 -264.5t168 -271t221.5 -216q119 87 213 215t160.5 269t108.5 269t59 219q18 94 18 146l-479 -479h-291z" />
    <glyph glyph-name="grave" unicode="`" horiz-adv-x="1573" 
d="M684 803v561h205v-561h561v-205h-561v-561h-205v561h-561v205h561z" />
    <glyph glyph-name="braceleft" unicode="{" horiz-adv-x="1376" 
d="M688 315q-36 0 -69.5 -21t-54.5 -55t-21 -69t20.5 -68.5t54.5 -54t70 -20.5t70 20.5t55 54t21 68.5t-21.5 69.5t-55 55t-69.5 20.5zM815 551h438v-207h-309q51 -84 51 -176q0 -64 -23 -121t-65.5 -101.5t-98.5 -68.5t-120 -24q-84 0 -160 42.5t-122 115.5t-46 157
q0 93 60 176h-297v207h428q-49 86 -74.5 196t-25.5 224q0 118 26 234.5t78 222t133 194.5q77 -86 128.5 -191.5t76.5 -221.5t25 -230q0 -120 -26 -229.5t-77 -198.5zM688 688q44 52 66 137t22 189q0 106 -22.5 197t-65.5 137q-41 -46 -64.5 -137t-23.5 -197q0 -222 88 -326z
" />
    <glyph glyph-name="bar" unicode="|" horiz-adv-x="1128" 
d="M281 659v-649h372v649h-372zM123 1329q0 72 42.5 140t110 110.5t140.5 42.5q72 0 139.5 -43t110.5 -110.5t43 -139.5q0 -73 -42.5 -140.5t-110.5 -110t-140 -42.5q-76 0 -144 42t-108.5 110t-40.5 141zM268 1329q0 -55 46 -101t102 -46t100.5 45.5t44.5 101.5
q0 36 -21 70t-55.5 55t-68.5 21q-55 0 -101.5 -45.5t-46.5 -100.5zM684 815h127v-962h-688v962h297v105q78 0 172 47.5t159.5 140t71.5 217.5h183q0 -76 -23.5 -149t-67 -140.5t-104.5 -124.5t-127 -96z" />
    <glyph glyph-name="braceright" unicode="}" horiz-adv-x="1769" 
d="M715 1389q-40 12 -76 12q-73 0 -141 -43t-111 -111t-43 -141q0 -72 42.5 -140.5t111 -111.5t141.5 -43q36 0 74 12q-99 137 -99 283q0 75 27 149t74 134zM885 1255q-49 -70 -49 -149t49 -150q49 84 49 150q0 79 -49 149zM1057 823q36 -12 73 -12q72 0 140.5 43
t111.5 111.5t43 140.5q0 73 -43 141.5t-111.5 111t-140.5 42.5q-44 0 -73 -12q46 -64 72 -137t26 -146q0 -70 -26 -144t-72 -139zM887 1550q55 34 119.5 53t123.5 19q128 0 248 -75t194.5 -195t74.5 -246q0 -80 -32.5 -161.5t-90 -151t-130 -118.5t-153.5 -71v-223h270v-221
h-270v-307h-221v307h-270v-307h-222v307h-270v221h270v223q-79 22 -152.5 71t-131 119t-89.5 151t-32 161q0 126 75 246t195 195t246 75q132 0 248 -72zM887 664q-63 -40 -137 -60v-223h270v223q-57 15 -133 60z" />
    <glyph glyph-name="asciitilde" unicode="~" 
d="M344 664v-590h1352v590h-1352zM639 885h737v516h-737v-516zM1597 885h295v-1032h-1769v1032h295v737h1179v-737z" />
    <glyph glyph-name="u0090" 
d="M639 664q-73 0 -141 -43t-111 -111t-43 -141q0 -72 42.5 -140.5t111 -111.5t141.5 -43t141.5 43t111 111.5t42.5 140.5q0 73 -43 141t-111 111t-141 43zM1065 637q90 -134 90 -268q0 -126 -75 -246t-195 -195t-246 -75t-246 75t-195 195t-75 246t75 246t195 195t246 75
q134 0 268 -90l828 831l157 -156z" />
    <glyph glyph-name="quoteright" unicode="&#x2019;" horiz-adv-x="1573" 
d="M1450 737q0 -119 -55 -238t-151.5 -216.5t-216.5 -153t-241 -55.5q-119 0 -238 55t-217 153t-153 216.5t-55 238.5t55.5 240.5t153 217t216 151.5t238.5 55t240.5 -55.5t216.5 -151.5t151.5 -216t55.5 -241zM305 737q0 -119 69.5 -230.5t181 -181t230.5 -69.5
q118 0 230 69t182 181t70 231q0 118 -70 230t-182 182t-230 70q-119 0 -231 -70t-181 -182t-69 -230zM1065 752q0 284 -147 284q-148 0 -148 -284q0 -283 148 -283q147 0 147 283zM1159 752q0 -143 -53 -253t-188 -110q-136 0 -190 110t-54 253q0 144 54 254t190 110
q135 0 188 -110t53 -254zM530 389v707h95v-707h-95z" />
    <glyph glyph-name="quotedblleft" unicode="&#x201c;" horiz-adv-x="1573" 
d="M782 629q-100 0 -162.5 62.5t-62.5 166.5q0 103 60.5 173.5t168.5 70.5q148 0 198 -99.5t50 -228.5q0 -67 -17 -158.5t-74 -167t-167 -75.5q-77 0 -123.5 31t-66 74.5t-19.5 84.5h88q6 -56 36.5 -86.5t82.5 -30.5q73 0 114 63.5t58 203.5l-2 2q-20 -39 -65.5 -62.5
t-96.5 -23.5zM795 711q51 0 94 33t43 126q0 40 -15.5 75t-48.5 56t-82 21q-60 0 -97.5 -44.5t-37.5 -115.5q0 -151 144 -151zM1450 737q0 -119 -55 -238t-151.5 -216.5t-216.5 -153t-241 -55.5q-119 0 -238 55t-217 153t-153 216.5t-55 238.5t55.5 240.5t153 217t216 151.5
t238.5 55t240.5 -55.5t216.5 -151.5t151.5 -216t55.5 -241zM305 737q0 -119 69.5 -230.5t181 -181t230.5 -69.5q118 0 230 69t182 181t70 231q0 118 -70 230t-182 182t-230 70q-119 0 -231 -70t-181 -182t-69 -230z" />
    <glyph glyph-name="quotedblright" unicode="&#x201d;" horiz-adv-x="1573" 
d="M1450 737q0 -119 -55 -238t-151.5 -216.5t-216.5 -153t-241 -55.5q-119 0 -238 55t-217 153t-153 216.5t-55 238.5t55.5 240.5t153 217t216 151.5t238.5 55t240.5 -55.5t216.5 -151.5t151.5 -216t55.5 -241zM305 737q0 -119 69.5 -230.5t181 -181t230.5 -69.5
q118 0 230 69t182 181t70 231q0 118 -70 230t-182 182t-230 70q-119 0 -231 -70t-181 -182t-69 -230zM532 967v86h490v-78l-289 -617h-98l289 609h-392z" />
    <glyph glyph-name="bullet" unicode="&#x2022;" horiz-adv-x="1573" 
d="M330 336l313 401l-313 402v-803zM786 920l379 481h285v-1327h-285l-379 481l-378 -481h-285v1327h285zM1243 1139l-313 -402l313 -401v803z" />
    <glyph glyph-name="emdash" unicode="&#x2013;" horiz-adv-x="1573" 
d="M782 629q-100 0 -162.5 62.5t-62.5 166.5q0 103 60.5 173.5t168.5 70.5q148 0 198 -99.5t50 -228.5q0 -67 -17 -158.5t-74 -167t-167 -75.5q-77 0 -123.5 31t-66 74.5t-19.5 84.5h88q6 -56 36.5 -86.5t82.5 -30.5q73 0 114 63.5t58 203.5l-2 2q-20 -39 -65.5 -62.5
t-96.5 -23.5zM795 711q51 0 94 33t43 126q0 40 -15.5 75t-48.5 56t-82 21q-60 0 -97.5 -44.5t-37.5 -115.5q0 -151 144 -151zM123 836l565 565h197l565 -565v-197l-565 -565h-197l-565 565v197zM299 737l487 -487l488 487l-488 488z" />
    <glyph glyph-name="endash" unicode="&#x2014;" horiz-adv-x="1573" 
d="M123 836l565 565h197l565 -565v-197l-565 -565h-197l-565 565v197zM299 737l487 -487l488 487l-488 488zM551 856v78h440v-70l-217 -479h-78l205 471h-350z" />
    <glyph glyph-name="tilde" unicode="&#x2dc;" horiz-adv-x="1233" 
d="M530 762h-325v174h215l-293 465h192l273 -465h129l270 465h191l-289 -465h217v-174h-328l-43 -66v-59h371v-174h-371v-389h-166v389h-368v174h368v59z" />
    <glyph glyph-name="trademark" unicode="&#x2122;" horiz-adv-x="1573" 
d="M782 629q-100 0 -162.5 62.5t-62.5 166.5q0 103 60.5 173.5t168.5 70.5q148 0 198 -99.5t50 -228.5q0 -67 -17 -158.5t-74 -167t-167 -75.5q-77 0 -123.5 31t-66 74.5t-19.5 84.5h88q6 -56 36.5 -86.5t82.5 -30.5q73 0 114 63.5t58 203.5l-2 2q-20 -39 -65.5 -62.5
t-96.5 -23.5zM795 711q51 0 94 33t43 126q0 40 -15.5 75t-48.5 56t-82 21q-60 0 -97.5 -44.5t-37.5 -115.5q0 -151 144 -151zM1450 1401v-1327h-1327v1327h1327zM330 1192v-911h911v911h-911z" />
    <glyph glyph-name="scaron" horiz-adv-x="1573" 
d="M330 336l233 299h-233v-299zM1243 336v299h-233zM1243 1139l-233 -299h233v299zM330 1139v-299h233zM786 920l379 481h285v-1327h-285l-379 481l-378 -481h-285v1327h285z" />
    <glyph glyph-name="guilsinglright" unicode="&#x203a;" 
d="M1010 1427l-502 -866h1005zM512 360q98 -118 229.5 -190t266.5 -72q92 0 181 33t170.5 93t143.5 136h-991zM369 737l532 885h221l525 -883v146h245v-148q0 -164 -74 -322t-202 -285t-288 -202t-320 -75t-320.5 74.5t-287.5 202t-202 287.5t-75 320v148h246v-148z" />
    <glyph glyph-name="oe" unicode="&#x153;" horiz-adv-x="1413" 
d="M483 987h455l-227 397zM285 1067l352 555h147l344 -539v50h162v-97q0 -123 -63 -241.5t-167 -204.5t-226 -121v-100h331v-222h-331v-294h-222v294h-331v222h331v94q-127 27 -240.5 114t-181 208.5t-67.5 250.5v97h162v-66zM379 788q64 -77 152 -125.5t178 -48.5
q89 0 177 48.5t148 125.5h-655z" />
    <glyph glyph-name="quoteleft" unicode="&#x2018;" horiz-adv-x="1573" 
d="M123 283l938 938l147 -148l-571 -571l706 299l82 -191l-770 -327h795v-209h-1327v209z" />
    <glyph glyph-name="u009D" horiz-adv-x="1808" 
d="M764 676q-75 0 -136 -62t-61 -135q0 -48 28.5 -94.5t75 -74t93.5 -27.5q73 0 135 60.5t62 135.5q0 35 -17 71t-45 64t-64 45t-71 17zM1331 1194h-1001v-207h-207v414h1563v-207h-60l-518 -518q61 -94 61 -197q0 -101 -58 -195t-152 -152t-195 -58q-73 0 -147.5 34.5
t-132.5 92.5t-92 131t-34 147q0 75 33.5 147.5t93 132t132 93t147.5 33.5q98 0 197 -62z" />
    <glyph glyph-name="Ydieresis" unicode="&#x178;" horiz-adv-x="2398" 
d="M893 1194l-526 -911h1058zM2275 1401v-414h-207v207h-933l540 -911v-209h-1552v209l659 1118h1493z" />
    <glyph glyph-name="u009E" horiz-adv-x="2472" 
d="M1335 1194h-1005v-207h-207v414h1563l663 -1118v-209h-1552v209zM1565 1194l-525 -911h1059z" />
  </font>
</defs>
</svg>
